<?xml version="1.0" standalone="no"?>
<!DOCTYPE svg PUBLIC "-//W3C//DTD SVG 20010904//EN"
 "http://www.w3.org/TR/2001/REC-SVG-20010904/DTD/svg10.dtd">
<svg version="1.0" xmlns="http://www.w3.org/2000/svg"
 width="3024.000000pt" height="4032.000000pt" viewBox="0 0 3024.000000 4032.000000"
 preserveAspectRatio="xMidYMid meet">
<metadata>
Created by potrace 1.15, written by Peter Selinger 2001-2017
</metadata>
<g transform="translate(0.000000,4032.000000) scale(0.100000,-0.100000)"
fill="#000000" stroke="none">
<path d="M0 29097 c0 -8692 3 -11226 12 -11235 9 -9 9 -12 0 -12 -16 0 -17
-2187 -1 -2207 9 -9 9 -13 0 -13 -7 0 -11 -31 -11 -95 0 -64 4 -95 11 -95 8 0
7 -5 -2 -16 -10 -13 -10 -17 2 -25 10 -6 11 -9 1 -9 -17 0 -15 -340 2 -340 7
0 8 -3 1 -8 -12 -8 -13 -32 -2 -49 5 -8 4 -13 -2 -13 -6 0 -11 -21 -11 -50 0
-42 2 -49 18 -44 16 5 16 5 -1 -6 -23 -15 -26 -150 -2 -150 8 0 15 -4 15 -10
0 -5 -7 -10 -15 -10 -17 0 -20 -26 -5 -35 8 -5 8 -11 0 -20 -7 -9 -6 -16 5
-25 19 -16 19 -34 0 -26 -22 8 -18 -10 6 -33 l21 -20 -21 -22 c-12 -13 -21
-27 -21 -32 0 -6 14 5 31 22 33 35 91 52 104 31 9 -14 -22 -50 -43 -50 -13 0
-13 3 1 18 38 42 8 44 -32 3 -21 -22 -27 -36 -24 -55 6 -29 32 -36 34 -8 1 9
1 21 0 25 -1 5 3 6 9 2 5 -3 10 -15 10 -26 0 -12 7 -19 20 -19 13 0 20 7 20
20 0 11 -4 20 -10 20 -21 0 -9 18 15 22 21 4 23 3 13 -9 -9 -11 -9 -16 3 -24
24 -15 28 -10 22 27 -5 29 -3 36 8 32 8 -3 14 -11 14 -18 0 -8 10 -17 23 -20
13 -3 24 -9 25 -15 1 -5 8 -10 16 -10 8 0 16 -6 19 -13 2 -6 10 -12 18 -12 8
0 14 -7 14 -15 0 -8 -7 -15 -15 -15 -8 0 -15 7 -15 15 0 17 -16 20 -25 5 -3
-5 5 -15 19 -22 14 -6 26 -15 26 -20 0 -4 4 -8 9 -8 5 0 8 24 6 54 -2 41 0 53
10 50 7 -3 16 -1 19 5 4 6 13 8 20 5 8 -3 16 2 19 13 4 16 6 15 12 -4 10 -31
70 -33 80 -3 9 27 36 25 57 -5 14 -19 16 -29 8 -50 -6 -15 -7 -32 -3 -38 4 -6
9 -2 14 11 6 17 17 22 43 22 19 0 37 -6 40 -12 3 -7 3 -2 0 11 -4 16 -3 21 5
17 6 -4 11 -14 11 -23 0 -13 8 -15 41 -10 37 5 40 3 36 -14 -3 -10 -1 -19 4
-19 5 0 9 -6 9 -14 0 -8 6 -16 14 -19 19 -7 18 -67 -1 -74 -16 -6 -17 -55 0
-72 10 -10 8 -12 -8 -9 -14 2 -19 11 -20 33 0 20 -5 29 -14 27 -7 -2 -20 6
-28 17 -7 11 -20 18 -28 15 -8 -4 -15 -1 -15 6 0 6 -5 8 -12 4 -8 -5 -4 -13
11 -25 12 -10 21 -26 19 -36 -3 -16 -19 -22 -18 -8 1 3 -6 13 -15 21 -13 14
-17 14 -31 0 -8 -9 -20 -14 -25 -11 -13 9 -11 -9 4 -24 10 -10 8 -12 -8 -9
-23 4 -33 37 -15 48 7 4 10 16 8 26 -4 16 -7 14 -17 -11 -13 -31 -27 -45 -49
-45 -9 0 -7 9 7 29 22 30 28 61 12 61 -6 0 -12 -4 -16 -10 -3 -5 -13 -6 -23
-3 -14 5 -15 3 -4 -8 20 -22 14 -29 -24 -29 -28 0 -35 -3 -31 -15 10 -25 -8
-25 -36 1 -30 28 -37 30 -37 9 0 -8 -5 -15 -11 -15 -5 0 -7 -5 -3 -12 4 -7 3
-8 -4 -4 -7 4 -12 13 -12 21 0 8 -13 15 -32 17 -18 2 -32 8 -31 13 3 17 -53
17 -67 0 -13 -15 -80 -21 -80 -7 0 4 5 13 12 20 9 9 7 12 -10 12 -12 0 -22 -4
-22 -10 0 -6 -9 -6 -26 0 -20 8 -29 6 -42 -7 -12 -12 -13 -18 -4 -21 6 -2 12
-10 12 -18 0 -9 -4 -13 -9 -10 -4 3 -8 -12 -8 -34 0 -32 3 -40 18 -40 10 0 21
5 24 10 5 8 11 8 19 1 8 -7 58 -9 131 -7 95 4 120 7 127 20 8 15 11 15 24 1
21 -20 64 -20 64 1 0 13 3 14 14 5 16 -14 343 -24 351 -11 5 8 50 4 67 -6 4
-3 8 0 8 5 0 6 -4 11 -9 11 -5 0 -11 9 -14 21 -4 13 -10 18 -18 13 -7 -4 -10
-3 -6 3 4 6 1 16 -7 22 -14 12 -14 46 -1 89 6 18 4 22 -14 22 -11 0 -21 5 -21
10 0 6 7 10 16 10 8 0 12 4 9 10 -3 5 -1 10 4 10 6 0 11 5 11 10 0 15 -16 12
-33 -5 -13 -12 -16 -12 -21 8 -9 35 -7 38 14 27 15 -8 25 -7 40 3 18 13 19 16
5 27 -8 7 -15 17 -15 23 0 5 8 3 18 -6 10 -10 21 -17 23 -17 9 0 46 54 53 78
9 29 -2 28 -38 -3 -16 -14 -33 -25 -38 -25 -15 0 -8 16 17 38 23 20 26 52 4
52 -5 0 -9 9 -9 19 0 14 5 18 19 14 13 -3 18 -11 14 -21 -5 -14 -3 -15 8 -4
20 18 38 15 32 -7 -4 -15 3 -20 34 -28 31 -7 40 -15 50 -43 12 -35 17 -33 14
7 -3 33 15 36 31 4 14 -29 14 -29 14 24 0 36 -4 51 -12 48 -19 -7 -24 12 -12
45 14 35 6 51 -16 33 -11 -9 -16 -9 -22 0 -5 9 -11 7 -21 -7 -11 -16 -17 -17
-34 -6 -11 7 -24 10 -29 7 -6 -4 -10 -1 -10 4 0 6 15 11 34 11 19 0 38 5 41
10 4 6 14 10 23 9 24 -4 62 10 62 23 0 7 -5 7 -13 1 -18 -13 -67 -16 -67 -4 0
5 -10 13 -23 17 -21 7 -21 8 8 16 23 6 33 4 42 -8 18 -25 56 -9 49 21 -3 13
-2 27 4 30 5 3 10 1 10 -6 0 -10 3 -10 11 -2 7 7 9 19 6 27 -5 12 -12 14 -31
6 -14 -5 -28 -5 -31 -1 -5 10 28 21 61 21 21 0 22 -4 18 -61 -4 -77 -11 -99
-31 -99 -13 0 -13 -3 -3 -15 17 -20 30 -19 31 3 0 15 1 15 8 -2 6 -17 9 -15
20 12 8 18 15 32 17 32 20 0 54 -22 48 -32 -5 -8 -2 -9 10 -5 14 6 17 3 12 -9
-3 -8 -6 -20 -6 -25 0 -5 -4 -9 -10 -9 -5 0 -10 6 -10 14 0 23 -19 29 -36 12
-8 -9 -21 -16 -27 -16 -8 0 -8 -3 1 -9 7 -4 12 -12 11 -17 -1 -5 -1 -18 0 -28
1 -19 1 -19 15 -1 7 10 11 27 8 38 -4 14 -1 18 9 15 15 -5 15 -15 3 -85 -5
-35 -4 -44 10 -49 19 -7 48 24 38 41 -4 5 -8 2 -10 -7 -5 -26 -22 -22 -22 5 1
24 28 90 29 70 1 -7 6 -13 13 -13 9 0 9 3 0 12 -13 13 -16 48 -4 48 20 -1 34
-20 29 -39 -3 -14 0 -21 9 -21 8 0 14 9 14 21 0 12 8 23 20 26 24 6 27 38 4
47 -8 3 -13 2 -10 -3 3 -4 -1 -17 -9 -27 -13 -17 -14 -18 -15 -1 0 10 -8 17
-20 17 -20 0 -40 27 -33 46 2 6 15 9 29 6 20 -4 25 -9 20 -26 -5 -20 -5 -20
12 2 l18 23 31 -31 c21 -20 33 -26 35 -18 4 11 8 10 21 0 13 -11 15 -10 10 9
-4 15 -3 20 5 15 18 -11 15 -56 -3 -56 -8 0 -15 -7 -15 -15 0 -8 8 -15 18 -15
10 0 38 -9 62 -21 36 -18 46 -19 66 -8 27 14 31 29 9 29 -8 0 -15 -4 -15 -10
0 -5 -4 -10 -10 -10 -5 0 -10 7 -10 16 0 14 -3 14 -15 4 -9 -7 -19 -10 -23 -6
-4 4 1 12 11 17 18 11 24 39 7 39 -5 0 -7 7 -4 15 6 15 26 22 22 8 -4 -12 24
-46 48 -60 19 -10 21 -9 20 17 -1 23 -5 28 -21 27 -12 -1 -19 3 -17 12 1 7 -3
19 -9 27 -9 11 -8 14 5 14 9 0 16 4 16 9 0 5 -18 7 -40 4 -30 -4 -40 -2 -40 8
0 12 -2 12 -9 0 -13 -20 -31 -4 -31 27 0 20 3 23 12 14 18 -18 75 -15 82 4 3
9 6 18 6 20 0 9 -37 3 -48 -8 -9 -9 -12 -8 -12 7 0 10 3 16 6 12 4 -3 14 4 24
15 16 20 19 21 33 6 9 -9 13 -19 9 -23 -4 -5 1 -5 11 -2 9 4 17 2 17 -3 0 -6
-4 -10 -10 -10 -5 0 -10 -7 -10 -15 0 -11 11 -15 40 -15 22 0 40 -5 40 -11 0
-5 5 -7 10 -4 13 8 -13 35 -34 35 -9 0 -16 3 -16 8 0 10 82 2 97 -10 8 -6 20
-5 34 3 18 9 19 13 8 20 -9 4 -16 26 -18 51 -1 23 -7 46 -14 51 -8 6 -8 7 3 4
8 -2 16 -13 18 -25 2 -12 10 -22 18 -22 8 0 14 -10 14 -25 0 -19 8 -28 37 -40
40 -17 63 -14 63 9 0 8 6 17 12 19 10 4 9 8 -2 16 -11 8 -18 6 -29 -9 -17 -25
-33 -26 -29 -2 4 23 -26 64 -43 57 -8 -2 -22 7 -32 20 -10 14 -13 25 -7 25 5
0 10 7 10 15 0 18 -17 20 -23 3 -2 -7 -7 -10 -11 -7 -3 3 -4 14 0 23 9 24 49
17 50 -9 1 -11 2 -26 3 -32 1 -7 7 -13 15 -13 8 0 24 -11 37 -25 13 -13 35
-25 47 -25 22 0 23 3 17 38 -5 31 -2 41 14 57 21 18 21 18 21 -3 0 -11 -5 -24
-10 -27 -16 -10 -12 -102 4 -108 9 -4 12 -14 9 -26 -4 -17 -1 -21 21 -21 26 0
36 15 15 22 -16 5 34 58 55 58 9 0 16 7 16 15 0 8 -9 15 -20 15 -12 0 -20 -7
-20 -16 0 -11 -6 -15 -20 -11 -15 4 -20 0 -20 -14 0 -10 -7 -19 -15 -19 -21 0
-19 16 7 39 28 27 28 75 -1 102 -20 19 -21 22 -7 38 9 10 16 22 16 27 0 19 59
74 79 74 15 0 21 6 21 21 0 16 6 20 28 19 45 -3 52 -1 52 20 0 13 7 20 20 20
11 0 20 -4 20 -10 0 -5 9 -10 19 -10 13 0 19 7 19 23 0 12 3 33 7 47 5 19 4
21 -4 10 -5 -8 -13 -11 -17 -7 -9 9 15 37 32 37 7 0 14 -10 16 -22 5 -32 28
-35 28 -3 0 20 4 26 15 21 10 -4 15 1 15 14 0 11 4 20 9 20 5 0 12 10 16 23
l8 22 4 -24 c3 -16 7 -20 13 -12 8 15 120 25 120 12 0 -5 -6 -12 -13 -14 -6
-3 4 -6 23 -7 32 -1 33 -2 17 -14 -12 -9 -14 -16 -7 -21 6 -4 17 -2 24 4 7 6
16 8 20 4 4 -4 4 1 0 11 -7 17 -4 18 24 13 41 -8 89 1 96 19 8 21 -21 68 -51
81 l-28 12 26 1 c14 0 30 -5 36 -11 14 -14 36 -2 27 13 -5 7 0 9 14 6 15 -4
22 -2 22 8 0 8 4 14 8 14 5 0 17 7 28 16 18 15 18 15 -3 9 -19 -5 -23 -2 -23
16 0 20 4 21 45 17 25 -3 45 -1 45 4 0 10 -24 37 -37 41 -10 3 -11 37 -1 43 4
3 8 1 8 -5 0 -14 59 -9 64 6 3 6 -2 17 -10 23 -11 10 -17 10 -29 0 -13 -11
-15 -7 -15 24 0 24 7 42 20 53 14 13 17 20 8 30 -7 9 -7 13 1 13 6 0 16 12 22
26 5 15 12 24 16 21 9 -10 43 12 43 28 0 8 9 20 20 27 29 19 25 36 -12 48 -31
9 -30 10 14 5 26 -2 50 -1 53 4 3 5 23 12 45 16 32 5 39 10 30 20 -14 17 3 29
29 20 10 -3 24 1 31 10 7 8 16 13 20 10 5 -3 12 0 15 5 5 8 13 6 25 -5 10 -9
24 -14 30 -10 6 4 17 1 25 -5 11 -9 20 -6 42 16 21 21 36 27 62 25 19 -1 41
-7 48 -13 9 -7 13 -7 13 1 0 8 7 7 22 -3 12 -9 32 -17 43 -17 17 -1 17 -2 2
-6 -9 -2 -17 -11 -17 -18 0 -18 34 -28 62 -19 19 6 33 8 96 13 7 1 10 5 7 11
-12 20 17 10 35 -12 15 -19 21 -21 43 -11 15 7 29 8 32 4 3 -5 -2 -12 -11 -15
-14 -5 -11 -26 4 -26 4 0 24 16 45 36 37 35 39 36 57 19 17 -15 20 -16 20 -3
0 9 9 18 20 21 11 3 20 1 20 -4 0 -5 7 -9 16 -9 12 0 14 7 9 29 -6 30 9 52 19
26 3 -8 14 -15 25 -15 13 0 21 -8 23 -23 2 -12 9 -21 15 -20 7 2 10 -4 6 -13
-7 -18 31 -49 63 -50 41 -2 48 -15 17 -35 -39 -26 -57 -25 -42 2 10 20 9 21
-23 14 -40 -9 -40 -8 -32 -28 3 -10 12 -13 22 -9 15 5 15 4 3 -11 -12 -15 -11
-17 11 -17 13 0 33 8 44 18 10 10 27 16 36 14 9 -2 28 4 43 14 14 9 29 13 33
9 4 -4 1 -10 -6 -12 -7 -3 -19 -11 -26 -19 -8 -8 -21 -14 -29 -14 -7 0 -17 -3
-21 -7 -4 -5 -12 -9 -17 -9 -5 -1 -13 -2 -18 -3 -5 0 -7 -10 -4 -21 7 -28 -16
-25 -26 3 -7 19 -10 15 -16 -27 -8 -50 4 -72 34 -61 7 3 21 0 29 -7 12 -10 14
-10 8 0 -4 6 -2 12 3 12 6 0 11 -12 11 -27 l1 -28 13 25 c8 14 12 28 9 33 -2
4 10 21 28 38 34 31 69 89 69 113 0 7 16 21 35 30 36 17 43 34 24 53 -8 8 -7
11 2 10 26 -1 79 16 79 25 0 6 9 23 21 39 24 34 19 85 -6 75 -16 -6 -21 9 -7
18 11 7 27 -6 35 -27 8 -22 37 -22 37 1 0 11 8 18 24 20 21 1 23 -3 23 -38 0
-27 -4 -40 -16 -43 -14 -4 -13 -5 2 -6 20 -1 23 -21 5 -39 -9 -9 -9 -12 3 -12
8 0 20 15 27 33 15 41 15 67 2 67 -5 0 -1 9 10 20 12 12 18 25 15 30 -4 6 3
10 15 10 11 0 30 9 42 20 12 11 24 17 27 14 3 -3 -1 -9 -9 -14 -12 -7 -12 -13
-4 -27 19 -31 40 -26 58 12 10 20 24 39 32 42 8 3 14 14 14 24 0 14 7 19 30
19 17 0 30 5 30 11 0 6 -7 8 -16 5 -10 -4 -14 -1 -11 6 5 15 38 11 50 -5 5 -8
7 -4 5 8 -3 18 3 20 70 23 45 2 72 -1 72 -8 0 -5 7 -10 15 -10 8 0 15 -5 15
-11 0 -6 9 -8 20 -4 11 4 20 2 20 -4 0 -6 5 -11 10 -11 6 0 10 7 10 15 0 13 7
12 41 -6 35 -17 41 -18 36 -5 -8 20 3 20 29 1 19 -14 19 -14 0 -15 -14 0 -17
-3 -10 -10 12 -12 41 -19 104 -27 52 -6 113 -30 105 -42 -2 -5 5 -21 17 -36
20 -25 25 -27 72 -20 27 3 54 9 59 12 6 3 45 5 87 4 45 -1 81 2 84 8 4 6 13 8
20 5 8 -3 17 -1 21 5 3 6 24 11 46 11 28 0 39 4 39 15 0 20 42 29 82 16 81
-26 163 -36 172 -22 4 6 12 11 18 11 6 0 8 -3 5 -7 -10 -9 65 -58 85 -55 9 2
19 -2 23 -8 3 -5 21 -10 39 -10 41 0 84 -20 92 -42 4 -13 16 -18 44 -18 30 0
39 4 38 18 0 9 4 46 10 82 13 77 22 140 26 195 2 22 6 51 9 65 3 14 8 48 11
75 3 28 12 88 20 134 8 46 14 87 14 90 -2 10 16 175 22 196 1 6 4 24 5 40 4
45 41 310 55 389 6 38 13 94 16 125 3 31 9 72 14 91 9 34 11 51 25 185 4 33 8
67 11 76 2 9 13 88 24 175 33 264 47 365 64 462 9 51 18 112 20 135 2 23 7 56
10 72 3 17 8 46 10 65 2 19 7 49 10 65 3 17 10 68 16 115 6 47 15 114 20 150
18 126 30 216 45 340 18 149 18 148 50 365 13 94 29 211 35 260 13 104 11 89
50 360 27 182 52 369 90 665 6 41 14 104 19 140 5 36 19 135 31 220 11 85 25
184 31 220 6 36 14 97 19 135 4 39 17 138 29 220 23 167 35 254 86 630 69 512
71 530 135 1030 22 176 45 347 50 380 5 33 18 134 30 225 11 91 24 194 30 230
5 36 14 112 20 170 6 58 20 168 30 245 11 77 24 178 30 225 6 47 29 220 51
385 22 165 44 336 49 380 5 44 18 145 29 225 11 80 22 168 26 195 3 28 10 82
16 120 5 39 23 176 39 305 17 129 35 264 40 300 14 98 19 130 29 221 13 111
31 248 36 279 2 14 11 84 20 155 8 72 20 155 25 185 5 30 16 116 25 190 20
175 47 398 84 690 32 255 66 540 77 635 3 33 17 148 30 255 57 451 91 735 114
955 7 65 19 126 31 150 25 54 35 121 19 140 -7 8 -10 29 -7 50 3 19 1 38 -4
41 -14 8 -11 35 5 53 13 14 41 172 35 196 -1 6 0 17 4 25 3 8 11 58 17 110 13
111 17 142 34 233 9 47 10 67 2 67 -6 0 3 11 19 25 17 14 37 23 45 21 17 -3
40 16 40 34 0 5 5 10 10 10 6 0 10 7 10 16 0 9 6 14 12 12 7 -3 21 5 31 16 17
19 18 19 13 2 -6 -16 -4 -17 9 -6 8 7 12 16 9 21 -3 5 0 8 8 7 7 -2 13 6 13
16 0 10 7 22 15 26 60 28 75 38 74 52 -1 10 4 14 11 11 8 -3 15 5 17 19 2 18
9 22 28 20 16 -1 20 1 12 6 -17 11 19 45 51 47 14 1 23 9 25 23 2 12 10 22 18
22 8 0 14 5 14 10 0 6 9 10 20 10 11 0 20 7 20 15 0 8 7 15 15 15 8 0 19 9 25
20 6 11 18 20 26 20 8 0 13 4 10 9 -8 12 29 52 51 56 10 2 20 4 23 4 3 1 0 5
-7 9 -9 6 -7 11 7 20 16 10 18 9 13 -4 -5 -14 -3 -14 15 -3 12 7 19 15 17 18
-3 2 5 9 18 16 12 6 21 17 20 23 -2 6 11 19 27 29 17 9 30 23 30 30 0 7 5 13
11 13 5 0 7 -5 3 -12 -4 -7 -3 -8 4 -4 6 4 9 13 5 21 -3 8 0 16 6 16 6 1 16 3
21 4 6 1 15 3 22 4 6 0 8 4 5 8 -11 10 124 134 147 136 24 1 48 21 39 31 -4 3
1 6 9 6 19 0 30 24 22 45 -8 21 -21 19 -36 -5 -7 -11 -18 -20 -25 -20 -6 0
-18 -8 -25 -17 -7 -10 -31 -34 -54 -53 -23 -19 -65 -55 -94 -80 -29 -25 -58
-50 -64 -55 -17 -16 -156 -135 -216 -185 -83 -70 -129 -110 -192 -169 -32 -30
-58 -51 -58 -48 0 3 -12 -7 -28 -21 -15 -15 -49 -45 -76 -67 -28 -22 -68 -56
-90 -75 -84 -73 -154 -130 -160 -130 -3 0 -6 13 -6 29 0 23 15 41 86 102 47
41 109 94 136 119 28 25 63 54 78 65 14 11 55 46 91 77 60 53 316 273 439 377
30 25 79 69 110 96 95 84 120 105 126 105 4 0 23 17 43 38 20 20 50 48 66 61
17 13 50 43 75 65 59 53 154 136 205 178 23 18 59 49 80 69 22 20 96 85 165
145 69 60 148 130 175 156 28 25 69 61 92 80 23 18 87 74 144 123 56 50 121
106 144 125 23 19 120 103 215 185 96 83 205 177 244 209 39 33 109 94 156
135 47 42 119 105 160 141 81 70 107 93 188 164 l53 46 262 0 c144 1 406 3
582 5 176 3 709 7 1184 10 475 3 866 6 867 8 2 2 8 102 14 223 5 120 15 248
20 284 9 61 21 279 35 620 3 80 14 357 25 615 11 259 20 507 20 551 0 56 4 85
13 93 8 6 17 8 20 4 4 -3 14 0 22 7 21 18 29 6 45 -63 11 -46 11 -60 1 -70
-10 -9 -16 -7 -31 11 -10 12 -20 22 -23 22 -11 0 -15 -45 -6 -63 8 -13 7 -104
-1 -295 -19 -439 -26 -876 -15 -884 6 -5 6 -8 -1 -8 -7 0 -12 -29 -14 -77 -2
-89 -5 -142 -14 -338 -18 -372 -26 -563 -26 -599 l0 -39 858 7 c471 3 1129 6
1461 6 554 1 606 -1 630 -17 14 -9 74 -56 133 -105 60 -49 188 -152 285 -230
98 -78 216 -174 263 -213 260 -217 392 -327 464 -385 45 -36 152 -124 238
-195 86 -72 169 -140 185 -153 15 -13 86 -71 157 -130 71 -59 146 -120 166
-137 21 -16 86 -70 145 -120 59 -49 153 -128 209 -173 125 -103 129 -107 195
-162 30 -24 75 -60 101 -80 26 -19 114 -91 196 -160 82 -69 158 -132 169 -142
11 -9 77 -63 146 -120 70 -57 170 -138 223 -182 87 -71 96 -82 96 -112 0 -26
-4 -32 -15 -28 -8 4 -15 10 -15 15 0 4 -18 21 -39 36 -40 28 -176 140 -254
207 -12 10 -38 30 -57 45 -19 14 -40 31 -46 36 -57 52 -307 259 -464 384 -85
68 -162 131 -170 140 -8 9 -30 27 -48 39 -29 21 -33 22 -38 7 -9 -22 26 -68
57 -76 13 -3 23 -11 22 -17 -2 -6 6 -9 17 -7 12 2 17 -1 14 -9 -3 -7 4 -21 16
-31 11 -10 20 -13 20 -7 0 6 -6 13 -12 15 -8 3 -8 6 -2 6 6 1 19 -9 30 -21 12
-13 13 -18 4 -13 -13 8 -13 7 -1 -9 9 -11 17 -13 21 -6 5 7 11 6 19 -4 9 -11
9 -15 -1 -20 -7 -3 -3 -4 10 -2 15 3 22 0 19 -7 -8 -26 152 -155 175 -141 11
6 11 5 0 -8 -17 -22 3 -35 25 -16 14 11 15 10 9 -10 -4 -13 -3 -22 3 -22 6 0
34 -23 62 -50 41 -40 55 -48 66 -39 10 9 12 9 8 -3 -6 -15 15 -40 31 -37 22 4
32 -2 30 -18 -1 -13 6 -18 22 -17 12 0 22 -5 22 -13 0 -8 4 -11 10 -8 6 3 7
-1 4 -9 -4 -11 0 -16 10 -16 9 0 16 -4 16 -10 0 -5 7 -7 15 -4 13 6 20 -6 16
-28 0 -5 5 -8 13 -8 8 0 17 -6 19 -12 4 -10 6 -9 6 1 1 19 41 -16 41 -36 0 -7
9 -13 20 -13 11 0 23 -7 26 -15 4 -8 12 -15 20 -15 8 0 14 -7 14 -15 0 -8 8
-15 18 -15 14 0 15 -2 2 -10 -12 -7 -8 -12 18 -23 18 -7 30 -16 27 -19 -3 -3
8 -8 25 -11 20 -4 30 -13 30 -24 1 -22 46 -57 62 -47 8 5 9 2 5 -9 -4 -11 -1
-17 8 -17 8 0 17 -10 19 -22 7 -30 64 -446 72 -523 4 -34 15 -70 25 -84 36
-46 7 -40 -55 11 -115 97 -392 319 -414 333 -9 6 -33 25 -54 44 -21 19 -48 41
-60 49 -13 9 -25 18 -28 22 -3 3 -25 21 -50 40 -25 19 -47 37 -50 40 -11 11
-105 86 -128 101 -13 9 -32 14 -43 12 -23 -6 -26 -23 -4 -23 8 0 15 -4 15 -10
0 -5 6 -10 13 -10 7 0 19 -9 27 -20 8 -11 23 -20 33 -20 10 0 15 -5 12 -10 -4
-6 7 -13 25 -16 17 -4 33 -10 36 -15 3 -5 -3 -6 -12 -2 -13 5 -11 0 6 -20 12
-14 33 -28 46 -31 13 -4 24 -11 24 -17 0 -12 45 -51 56 -49 4 1 11 -5 16 -14
5 -8 14 -13 21 -10 7 2 22 -6 33 -18 l19 -23 -25 20 -25 19 23 -24 c13 -15 34
-25 50 -25 19 0 28 -6 30 -20 6 -30 23 -47 44 -42 10 3 16 1 12 -4 -3 -5 0 -9
5 -9 6 0 11 -7 11 -15 0 -8 8 -15 18 -15 9 0 25 -7 35 -14 19 -15 24 -31 5
-20 -7 5 -8 3 -4 -5 5 -7 10 -10 13 -8 2 3 21 -10 41 -29 20 -19 42 -32 49
-29 16 5 46 -24 40 -40 -3 -6 4 -17 15 -24 18 -11 18 -10 7 11 -10 20 -8 19
19 -6 17 -16 29 -32 27 -36 -2 -4 6 -17 19 -29 17 -16 25 -19 28 -10 2 7 9 9
17 5 11 -7 11 -10 0 -17 -11 -7 -11 -9 -1 -9 7 0 20 -6 28 -14 7 -8 18 -16 23
-18 17 -5 21 -60 7 -80 -16 -23 -3 -91 24 -123 16 -20 29 -110 76 -550 8 -71
18 -161 24 -200 6 -38 19 -149 30 -245 12 -96 34 -283 50 -415 16 -132 38
-321 50 -420 18 -155 39 -328 55 -455 3 -19 18 -145 35 -280 31 -257 63 -507
80 -625 5 -38 12 -92 15 -120 3 -27 10 -86 15 -130 6 -44 28 -219 50 -390 22
-170 44 -345 50 -389 5 -43 17 -140 25 -215 8 -75 22 -188 30 -251 15 -117 46
-377 66 -550 5 -52 14 -124 19 -160 5 -36 14 -117 20 -180 6 -63 22 -216 36
-340 13 -124 29 -268 35 -320 33 -309 81 -725 144 -1240 37 -306 60 -507 100
-855 14 -121 27 -231 30 -245 6 -31 66 -501 100 -775 19 -159 22 -182 35 -270
5 -38 19 -144 31 -235 12 -91 25 -194 29 -230 5 -36 12 -96 15 -135 4 -38 9
-73 10 -76 2 -3 7 -34 10 -70 3 -35 15 -129 25 -209 11 -80 29 -215 40 -300
11 -85 27 -204 35 -265 8 -60 17 -132 20 -160 3 -27 10 -75 15 -105 5 -30 12
-82 16 -115 4 -33 8 -62 9 -65 0 -3 4 -36 9 -75 4 -38 16 -126 26 -195 10 -69
21 -147 25 -175 3 -27 8 -59 10 -70 2 -11 7 -47 10 -80 3 -33 8 -67 10 -75 2
-8 7 -44 10 -80 4 -36 8 -67 10 -70 3 -5 20 -126 46 -340 6 -47 12 -96 14
-110 2 -14 13 -95 25 -180 21 -154 67 -488 75 -545 3 -16 9 -70 15 -120 6 -49
12 -101 15 -115 10 -69 25 -174 35 -250 6 -47 15 -114 20 -150 6 -36 12 -83
14 -105 3 -22 14 -105 26 -185 24 -168 25 -177 40 -330 6 -63 15 -149 21 -190
5 -41 12 -102 14 -135 2 -33 13 -139 25 -235 12 -96 24 -197 26 -225 2 -27 7
-75 11 -105 3 -30 6 -59 4 -64 -1 -4 3 -43 9 -85 7 -42 13 -96 15 -121 1 -25
8 -87 15 -138 6 -51 13 -117 15 -145 4 -70 12 -145 24 -247 6 -47 13 -115 17
-152 l5 -66 37 -5 c36 -6 107 -19 207 -38 28 -6 71 -13 98 -16 26 -3 47 -9 47
-15 0 -5 4 -7 8 -4 5 3 37 -2 73 -10 35 -8 86 -16 112 -16 29 -1 43 -5 35 -10
-8 -5 -1 -8 20 -8 23 0 31 4 26 12 -4 7 6 3 22 -8 16 -11 61 -26 99 -33 39 -7
84 -17 100 -22 39 -11 89 -13 143 -4 33 5 42 4 42 -8 0 -8 7 -18 16 -21 14 -5
15 -4 4 9 -19 22 -8 26 24 10 l28 -15 -6 38 c-3 20 -10 54 -15 74 -5 22 -5 36
0 32 5 -3 9 1 9 10 0 23 -11 46 -20 41 -4 -3 -4 12 0 32 5 20 7 40 5 44 -3 4
-7 44 -11 90 -3 46 -7 100 -9 119 -2 19 -4 40 -5 45 0 6 -5 3 -10 -5 -6 -9
-10 -10 -10 -3 0 6 4 14 8 17 5 3 8 40 6 82 -1 59 -6 79 -18 86 -9 5 -16 16
-16 23 0 8 -9 24 -20 35 -11 11 -15 22 -10 25 6 4 10 0 11 -7 1 -7 4 -2 8 12
7 27 2 26 211 49 47 5 87 10 89 10 2 1 1 7 -2 14 -3 8 3 14 14 14 11 1 17 -2
14 -8 -4 -5 14 -9 40 -9 38 0 46 3 41 15 -3 8 -1 15 4 15 6 0 10 -4 10 -8 0
-7 32 -5 160 12 14 1 37 4 52 4 16 1 37 11 48 22 22 22 58 18 37 -5 -7 -7 -15
-11 -19 -9 -4 2 -9 0 -13 -6 -3 -6 0 -12 7 -14 7 -2 31 -9 53 -15 22 -6 50
-13 62 -14 12 -2 26 -6 29 -10 4 -4 17 -7 28 -6 12 0 15 3 8 6 -6 2 -10 9 -6
14 3 5 13 0 23 -12 11 -14 32 -23 66 -26 28 -3 52 -9 55 -12 10 -12 77 -31
106 -30 16 0 23 3 14 6 -8 4 -21 12 -28 20 -7 7 -20 13 -28 13 -8 0 -14 4 -14
9 0 5 17 3 38 -5 46 -17 72 -17 72 -2 0 6 3 8 6 5 4 -4 2 -13 -5 -21 -9 -11
-9 -15 1 -19 8 -3 5 -6 -6 -6 -25 -1 -12 -14 17 -18 12 -2 32 -5 45 -8 20 -5
23 -3 17 15 -7 22 4 27 22 9 6 -6 25 -8 44 -4 41 8 49 7 49 -2 0 -9 -5 -10
-60 -12 -22 0 -40 -6 -40 -11 0 -11 59 -8 78 4 6 3 13 2 17 -4 3 -5 -2 -10
-12 -10 -15 0 -16 -2 -3 -10 8 -5 22 -10 30 -10 13 0 13 1 0 11 -12 8 -10 10
10 5 36 -8 81 14 74 36 -3 10 0 18 6 18 6 0 10 8 8 18 -4 26 16 27 24 0 3 -13
6 -17 7 -10 1 7 5 11 10 8 5 -4 7 3 4 14 -3 11 -9 18 -13 15 -4 -3 -10 2 -14
10 -3 8 -10 15 -16 15 -6 0 -8 -5 -4 -11 4 -7 0 -9 -14 -5 -23 8 -38 -20 -27
-53 4 -13 0 -20 -12 -24 -10 -2 -27 -8 -38 -12 -11 -3 -8 1 7 9 32 19 28 41
-9 53 -24 8 -24 10 -9 25 9 9 16 24 16 32 0 9 8 16 18 16 10 0 22 12 29 30 10
26 16 30 47 30 29 0 36 4 36 20 0 13 -7 20 -20 20 -11 0 -20 5 -20 10 0 6 7
10 16 10 13 0 14 3 4 15 -17 20 -4 38 20 25 15 -8 20 -6 26 12 4 14 2 24 -5
26 -9 3 -7 10 4 22 9 10 14 24 10 29 -11 19 -23 12 -34 -19 -5 -16 -7 -30 -4
-30 3 0 -7 -10 -22 -22 -22 -17 -31 -19 -46 -10 -16 10 -19 9 -19 -4 0 -13 -3
-14 -14 -5 -10 9 -16 8 -26 -4 -7 -8 -18 -15 -25 -15 -7 0 -12 -11 -12 -25 0
-15 5 -25 13 -25 17 0 18 -22 2 -38 -9 -9 -8 -12 4 -12 9 0 20 5 23 10 8 13
35 13 35 0 0 -5 -9 -10 -20 -10 -13 0 -20 -7 -20 -20 0 -13 -7 -20 -19 -20
-13 0 -21 -8 -23 -22 -2 -18 -11 -24 -36 -26 -18 -2 -36 -10 -39 -18 -3 -7 -9
-11 -14 -8 -5 3 -7 10 -4 15 4 5 -8 9 -24 9 -24 0 -31 4 -31 20 0 11 7 20 15
20 9 0 15 9 15 25 0 14 -4 25 -10 25 -5 0 -10 -5 -10 -11 0 -6 -7 -9 -15 -6
-8 4 -17 2 -20 -3 -8 -12 -54 -9 -52 4 2 9 -83 39 -91 32 -6 -7 40 -86 50 -86
4 0 8 11 8 25 0 34 15 32 30 -4 7 -17 21 -32 33 -34 12 -2 -8 -4 -46 -3 l-67
1 -10 34 c-5 19 -7 38 -5 42 3 4 -5 5 -17 2 -22 -5 -22 -5 -4 9 13 11 17 21
12 34 -7 18 -9 17 -17 -5 -7 -17 -15 -22 -29 -18 -11 3 -23 1 -26 -4 -9 -16
-37 -10 -30 6 3 8 9 22 12 30 4 9 1 15 -9 15 -8 0 -20 6 -26 14 -6 7 -22 11
-35 9 -22 -5 -25 -1 -28 28 -2 29 -7 34 -25 31 -13 -2 -30 1 -39 6 -15 9 -15
11 6 22 12 7 20 8 16 2 -3 -5 6 -9 19 -10 21 0 27 8 37 42 6 22 15 46 20 53 6
8 -1 19 -22 35 -18 13 -36 33 -41 46 -9 24 -29 22 -29 -4 0 -22 -17 -17 -23 7
-3 12 1 32 9 44 14 21 13 22 -21 20 -26 -1 -35 3 -35 14 0 12 9 16 36 15 62
-2 86 6 81 28 -4 15 -2 18 16 12 19 -6 20 -5 9 9 -8 9 -11 21 -7 27 5 8 11 6
19 -5 11 -15 14 -15 24 -2 10 12 8 16 -10 21 l-23 6 27 25 c15 14 32 25 38 25
5 0 10 5 10 10 0 6 -7 10 -15 10 -8 0 -15 5 -15 11 0 6 -7 8 -16 5 -12 -4 -15
-2 -10 9 3 8 9 22 12 30 4 11 0 15 -15 15 -12 0 -21 5 -21 10 0 6 9 10 21 10
12 0 23 8 26 19 3 11 11 22 18 25 9 3 12 0 8 -10 -3 -7 0 -14 7 -14 9 0 11 10
7 30 -9 43 1 60 35 60 17 0 27 -4 23 -10 -12 -20 6 -10 32 17 15 16 23 22 19
15 -9 -15 36 -17 64 -2 15 8 21 6 29 -7 9 -17 11 -17 24 1 13 18 43 14 32 -4
-7 -11 30 -19 46 -10 18 12 20 40 3 47 -8 3 -14 10 -14 15 0 6 5 6 14 -1 11
-9 17 -8 28 2 7 8 29 13 47 13 36 -1 54 20 30 35 -10 6 -11 9 -1 9 7 0 15 -7
18 -15 4 -8 13 -15 22 -15 12 0 12 4 -4 21 -18 20 -18 21 1 35 10 8 13 14 7
14 -7 0 -12 7 -12 15 0 8 5 15 10 15 6 0 17 15 25 33 11 23 14 27 15 12 1 -42
50 -76 50 -35 0 13 5 18 15 14 9 -4 15 0 15 10 0 9 4 16 8 16 5 0 15 12 23 26
16 31 50 47 104 48 32 1 40 5 38 19 -1 13 4 17 15 12 10 -4 35 -9 57 -12 22
-3 46 -10 53 -16 7 -5 15 -7 19 -3 3 3 1 6 -5 6 -6 0 -9 6 -6 14 4 10 26 13
84 12 44 -1 80 -5 80 -10 0 -14 14 3 16 20 4 28 13 44 24 44 6 0 10 -8 8 -17
-1 -10 1 -24 5 -30 5 -9 3 -13 -7 -13 -9 0 -16 -7 -16 -15 0 -17 16 -20 25 -5
3 5 15 10 26 10 10 0 19 6 19 13 0 6 9 1 20 -13 10 -14 22 -21 26 -17 4 4 2 7
-4 7 -7 0 -11 15 -10 40 2 47 12 51 27 13 l10 -28 -2 30 c-2 26 -6 30 -36 33
-24 3 -31 0 -25 -9 4 -8 3 -10 -5 -5 -20 13 -1 26 40 26 44 0 53 17 12 23
l-28 4 28 2 c18 0 27 6 24 14 -2 6 -10 11 -16 9 -16 -3 -14 17 4 34 13 14 15
13 15 -4 0 -29 26 -48 45 -32 18 15 34 5 18 -11 -6 -6 -22 -17 -35 -23 -40
-20 -37 -96 5 -96 12 0 29 -4 37 -10 9 -5 19 -5 26 1 14 11 18 6 28 -34 6 -26
7 -27 31 -11 13 9 30 14 37 12 7 -3 18 2 24 11 10 13 13 13 28 -2 21 -21 30
-22 22 -2 -3 8 0 15 7 15 10 0 -41 35 -81 56 -19 10 -27 -3 -12 -21 10 -11 10
-15 0 -15 -6 0 -14 9 -17 20 -3 11 -11 20 -18 20 -7 0 -18 6 -24 14 -9 10 -8
15 3 19 7 3 18 1 24 -5 7 -7 17 -6 31 1 27 15 27 31 1 31 -23 0 -27 28 -6 36
9 3 27 -8 45 -28 l31 -33 -11 31 c-14 45 1 98 29 102 28 4 29 -21 2 -65 -21
-36 -13 -50 16 -29 13 10 19 27 19 55 0 28 4 42 15 45 8 2 2 4 -15 5 l-30 2
39 18 c21 10 42 24 47 32 8 11 13 10 27 -7 16 -19 42 -22 42 -4 0 15 -65 38
-93 33 -23 -5 -26 -3 -20 13 4 11 8 13 11 6 5 -17 22 -15 22 3 0 8 -9 15 -20
15 -29 0 -25 25 5 26 20 2 25 -3 25 -21 0 -24 25 -41 35 -24 4 5 4 24 0 42
l-6 32 16 -34 c11 -25 12 -37 4 -47 -9 -11 -8 -14 1 -14 6 0 24 -9 40 -20 15
-11 30 -17 34 -13 3 3 6 -3 6 -15 0 -12 5 -22 10 -22 6 0 10 19 10 42 0 23 3
39 6 35 3 -3 6 -21 6 -40 0 -37 31 -69 42 -42 3 8 0 14 -6 12 -17 -3 -30 57
-18 88 8 22 13 25 25 15 8 -6 19 -9 24 -6 5 4 12 2 16 -4 10 -15 27 0 21 17
-4 9 -1 22 5 29 13 16 54 19 44 4 -3 -5 -12 -7 -20 -3 -10 3 -15 -2 -15 -17 0
-14 5 -20 13 -16 6 3 20 9 29 12 9 3 18 16 20 28 2 14 9 20 21 18 22 -4 21 7
-3 36 -12 15 -31 24 -50 24 -21 1 -27 4 -18 9 7 5 8 9 2 9 -5 0 -15 -5 -21
-11 -8 -8 -13 -8 -18 0 -3 6 1 14 10 17 17 7 67 -10 107 -38 34 -23 42 -23 35
3 -5 17 -2 20 13 16 10 -2 22 -2 27 2 15 10 33 70 23 76 -12 7 -50 -12 -50
-25 0 -6 -6 -10 -14 -10 -8 0 -16 -4 -18 -9 -1 -4 -14 -12 -28 -16 -20 -6 -23
-5 -13 5 9 10 9 16 -2 26 -18 18 -25 18 -25 -1 0 -8 -4 -15 -10 -15 -5 0 -10
4 -10 9 0 5 -12 11 -27 13 l-28 3 24 14 c13 7 21 8 17 2 -9 -13 -9 -13 31 -2
22 7 33 6 37 -2 2 -7 5 -6 5 3 1 12 10 15 41 12 34 -4 40 -1 40 15 0 10 4 23
9 28 5 6 5 20 -1 35 -7 20 -11 22 -18 10 -8 -13 -10 -13 -10 1 0 9 7 19 15 23
16 6 21 36 6 36 -5 0 -11 7 -15 15 -3 9 0 15 10 15 8 0 13 -4 10 -9 -3 -4 6
-6 19 -3 30 5 34 32 5 32 -25 0 -38 29 -19 40 7 5 10 12 7 16 -4 3 6 17 22 31
16 13 29 27 29 31 -1 4 -1 18 0 31 1 20 3 21 16 11 12 -10 18 -10 30 0 12 10
16 9 21 -4 8 -21 54 -21 54 -1 0 8 9 15 20 15 11 0 20 7 20 15 0 9 11 20 24
25 35 13 40 29 11 36 -30 7 -32 20 -5 29 11 3 20 11 20 16 0 5 5 9 11 9 5 0 7
-5 4 -10 -3 -5 2 -10 12 -10 14 0 15 -2 5 -9 -11 -7 -11 -9 2 -14 11 -5 16 -1
16 13 0 11 -4 20 -10 20 -18 0 -10 22 10 27 11 3 18 9 15 13 -2 4 5 16 16 26
20 18 21 18 35 -1 8 -10 14 -25 14 -33 0 -9 6 -11 23 -6 12 4 31 8 42 8 11 1
23 5 27 10 4 6 12 5 21 -3 10 -8 17 -9 22 -1 3 5 15 10 25 10 13 0 22 9 26 26
l6 25 20 -20 c25 -28 32 -26 24 4 -4 15 -2 25 5 25 6 0 23 9 39 20 15 11 29
17 32 15 3 -3 19 0 37 6 20 7 36 8 44 2 11 -9 31 -10 91 -5 13 2 17 8 13 22
-4 16 -2 20 12 15 24 -7 71 38 71 69 0 14 5 28 10 31 6 3 10 -3 10 -13 0 -24
29 -37 36 -17 4 10 14 13 30 9 15 -4 24 -2 24 5 0 6 -4 11 -10 11 -13 0 -13
27 0 35 5 3 7 0 4 -8 -7 -19 16 -34 26 -17 6 10 16 6 42 -14 19 -14 37 -24 40
-21 2 3 4 -5 4 -17 -1 -28 18 -34 30 -8 8 18 11 19 37 5 31 -16 61 -10 53 11
-6 15 21 8 45 -13 17 -14 73 -9 97 10 8 6 12 6 12 -1 0 -6 15 -10 33 -10 17 0
46 0 62 0 17 0 59 -1 95 -1 36 1 80 -2 97 -6 25 -6 34 -4 39 9 3 9 11 16 16
16 7 0 7 -4 0 -13 -6 -7 -8 -17 -4 -23 18 -26 68 -54 95 -54 29 0 29 1 14 18
-10 10 -17 24 -17 31 0 7 -6 11 -14 8 -8 -3 -17 -3 -20 0 -8 9 46 43 56 37 5
-3 15 0 23 6 10 8 15 9 15 2 0 -6 -5 -14 -10 -17 -6 -4 -8 -11 -4 -16 3 -5 0
-16 -6 -24 -15 -18 -5 -35 22 -35 15 0 18 3 11 12 -12 15 -13 51 -3 58 4 3 10
16 14 30 3 14 3 19 0 13 -8 -18 -24 -16 -24 2 0 8 4 15 9 15 5 0 12 10 15 23
6 21 7 21 20 5 16 -22 26 -23 26 -2 0 26 27 45 55 38 25 -6 31 -15 18 -27 -3
-4 -12 -2 -20 4 -21 18 -16 -8 7 -33 14 -15 17 -25 10 -32 -8 -8 -14 -6 -20 4
-8 12 -10 10 -10 -7 0 -13 -5 -23 -11 -23 -6 0 -9 -6 -6 -14 3 -8 0 -17 -8
-20 -19 -7 -7 -46 15 -46 9 0 22 11 28 25 7 15 20 25 32 25 11 0 20 5 20 11 0
5 5 7 11 3 6 -3 22 -1 35 6 19 11 26 11 39 0 12 -10 15 -10 15 4 0 9 -5 15
-11 14 -6 -2 -14 3 -16 10 -3 6 0 12 5 12 6 0 18 7 26 16 14 14 18 13 41 -12
14 -15 25 -31 25 -35 0 -5 9 -9 21 -9 11 0 17 -4 14 -10 -3 -5 1 -10 9 -10 8
0 18 5 21 10 4 6 12 8 18 4 7 -3 3 2 -7 10 -12 10 -28 13 -44 9 -18 -4 -23 -2
-20 8 3 8 -2 19 -11 26 -20 15 -11 24 16 17 14 -4 20 -11 16 -20 -4 -12 3 -14
33 -13 44 3 74 15 74 30 0 6 7 17 15 25 8 9 15 20 15 25 0 6 -7 3 -16 -6 -9
-9 -19 -13 -23 -9 -3 4 0 9 6 11 7 3 13 11 13 19 0 8 5 14 12 14 6 0 19 7 29
16 14 12 22 13 39 4 12 -6 24 -9 28 -6 3 3 0 6 -6 6 -7 0 -12 5 -12 10 0 13
37 13 45 0 8 -13 35 -13 35 0 0 6 -7 10 -15 10 -8 0 -15 4 -15 9 0 5 7 11 15
15 8 3 15 12 15 21 0 8 7 15 15 15 17 0 20 -16 5 -25 -15 -9 -12 -21 8 -41 16
-17 16 -17 0 -11 -19 7 -33 -7 -23 -23 5 -8 12 -7 22 1 11 10 16 10 23 0 5 -9
10 -10 14 -2 4 6 2 11 -3 11 -6 0 -11 4 -11 8 0 4 12 7 28 6 37 -2 39 -3 22
-14 -12 -8 -12 -10 3 -16 14 -5 15 -9 6 -20 -15 -18 -3 -32 13 -16 9 9 9 22 1
52 -9 37 -9 40 7 35 12 -4 19 1 23 14 3 11 2 22 -2 24 -3 2 0 2 7 0 8 -2 16 6
19 17 3 11 9 20 14 20 13 0 11 -24 -3 -38 -16 -16 14 -48 33 -37 9 6 6 11 -11
17 -28 10 -25 13 19 22 27 5 31 4 22 -7 -8 -11 -6 -18 10 -33 20 -18 20 -18
14 11 -4 17 -14 36 -23 43 -14 10 -14 12 -1 12 9 0 19 -3 22 -7 4 -3 18 -7 31
-8 39 -1 19 23 -25 30 -21 4 -39 11 -39 16 0 10 63 4 82 -7 7 -5 9 0 6 14 -4
12 -2 22 3 22 5 0 9 7 9 15 0 8 -4 15 -10 15 -5 0 -10 5 -10 10 0 6 8 10 18
10 10 0 22 3 26 7 4 5 22 14 39 20 l32 13 -32 -6 c-25 -4 -33 -2 -33 10 0 8 5
18 10 21 6 3 10 2 10 -2 0 -5 16 -7 35 -5 19 2 35 8 35 13 0 10 -14 13 -44 9
-11 -1 -15 3 -12 9 4 6 20 11 36 11 40 0 60 9 53 26 -3 8 0 14 7 14 16 0 40
26 40 44 0 9 5 16 10 16 16 0 12 50 -5 56 -8 4 -15 16 -15 27 0 20 0 20 14 2
12 -17 14 1 15 145 0 118 -3 167 -12 172 -9 6 -9 8 0 8 10 0 13 2221 13 11070
l0 11070 -15120 0 -15120 0 0 -11223z m2160 -9777 c0 -5 4 -9 9 -7 5 1 17 -7
25 -18 9 -11 16 -14 16 -7 0 17 29 15 36 -2 9 -24 57 -50 87 -48 17 2 27 -3
27 -11 0 -8 11 -14 30 -14 43 0 110 -24 110 -39 0 -18 50 -15 72 4 19 16 38 9
38 -15 0 -10 6 -13 16 -9 9 4 28 -4 46 -19 16 -14 34 -25 40 -25 24 0 54 -48
56 -91 3 -40 27 -79 49 -79 4 0 16 -13 25 -30 16 -28 16 -29 -3 -35 -10 -4
-23 -4 -28 0 -14 8 -23 -12 -16 -35 4 -13 14 -19 28 -17 15 1 22 -4 22 -15 0
-9 4 -20 8 -24 4 -4 7 -2 7 5 0 23 22 6 36 -27 11 -27 11 -32 -1 -32 -9 0 -12
-6 -9 -15 4 -9 0 -15 -10 -15 -10 0 -16 9 -16 25 0 14 -5 25 -10 25 -7 0 -8
-13 -4 -35 6 -36 -9 -70 -28 -59 -5 3 -15 0 -23 -6 -17 -14 -21 -35 -5 -25 6
3 10 2 10 -3 0 -6 -8 -13 -17 -17 -17 -6 -17 -7 1 -20 10 -8 22 -12 26 -10 5
3 11 -7 14 -21 5 -20 1 -31 -19 -50 -15 -14 -32 -21 -42 -17 -12 5 -14 3 -8
-7 6 -10 0 -12 -26 -8 -24 4 -37 1 -45 -11 -10 -13 -14 -13 -28 -2 -14 11 -16
11 -16 -3 0 -9 7 -16 16 -16 8 0 12 -4 9 -10 -3 -5 -16 -8 -28 -6 -12 2 -31
-1 -41 -6 -18 -10 -18 -11 -1 -20 23 -14 2 -28 -41 -28 -25 0 -36 7 -55 35
-15 22 -30 34 -40 32 -16 -4 -49 24 -49 42 0 4 -20 16 -45 25 -25 10 -45 22
-45 27 0 5 -10 9 -23 9 -12 0 -40 9 -61 19 l-38 20 -41 -30 c-39 -28 -42 -34
-47 -87 -7 -81 -2 -116 16 -101 8 6 14 18 14 27 0 13 2 13 18 0 9 -8 25 -18
35 -21 9 -4 17 -16 17 -27 0 -11 5 -20 10 -20 6 0 10 -7 10 -15 0 -8 5 -15 10
-15 6 0 10 -7 10 -15 0 -8 4 -15 9 -15 5 0 11 -14 15 -31 3 -17 10 -28 16 -24
5 3 10 -1 10 -10 0 -9 -4 -14 -9 -11 -14 9 -20 -17 -12 -60 8 -43 5 -64 -11
-64 -5 0 -16 -7 -24 -15 -19 -19 -34 -19 -34 -1 0 8 -7 16 -15 20 -10 4 -15
-1 -15 -15 0 -11 -4 -17 -10 -14 -5 3 -10 -3 -10 -13 0 -19 -42 -37 -55 -24
-18 19 -56 10 -83 -18 -16 -16 -34 -30 -41 -30 -21 0 -11 -20 12 -21 15 0 17
-2 7 -6 -8 -3 -18 -11 -23 -17 -5 -8 -11 -6 -20 4 -16 20 -65 45 -74 37 -3 -4
-7 -19 -9 -34 -1 -16 -3 -29 -4 -30 -1 -2 -3 -7 -4 -12 -3 -21 -18 -25 -31 -8
-7 10 -17 16 -22 15 -5 -2 -21 10 -34 26 -24 28 -26 28 -44 10 -13 -13 -20
-15 -23 -6 -2 7 -21 12 -43 12 -21 0 -38 3 -38 8 1 4 1 17 0 30 -1 27 -21 30
-21 2 0 -26 -29 -15 -40 16 -14 37 -63 29 -112 -18 -41 -40 -53 -45 -63 -28
-4 6 -11 8 -16 4 -5 -3 -7 -9 -5 -13 4 -6 -10 -14 -69 -36 -11 -5 -24 -9 -30
-10 -5 0 -21 -4 -35 -9 -14 -4 -38 -2 -54 4 -25 9 -28 14 -22 41 5 26 3 30
-10 25 -9 -3 -20 -6 -25 -6 -6 0 -7 -4 -4 -10 3 -5 -3 -10 -15 -10 -17 0 -20
4 -15 20 4 11 2 20 -4 20 -5 0 -22 11 -37 25 -15 14 -33 25 -39 25 -7 0 -16 7
-19 16 -3 8 -10 13 -15 9 -6 -3 -8 -12 -5 -19 3 -7 -2 -16 -11 -20 -9 -3 -13
-2 -10 4 3 6 1 10 -6 10 -8 0 -8 4 1 15 10 12 9 15 -4 15 -9 0 -19 -7 -22 -15
-4 -8 -16 -14 -28 -14 -16 1 -17 2 -3 6 19 5 23 19 5 25 -18 6 -68 -3 -68 -13
0 -5 7 -9 17 -9 9 0 14 -3 10 -6 -3 -3 -23 0 -43 6 -35 12 -37 14 -16 21 12 5
22 12 22 16 0 12 -94 10 -102 -2 -14 -19 -8 -33 17 -39 16 -4 23 -11 19 -18
-6 -9 -9 -9 -12 0 -2 7 -8 12 -13 12 -6 0 -8 -4 -5 -9 8 -12 -45 -5 -58 9 -8
8 -7 10 6 5 13 -5 15 -2 11 14 -3 12 -9 21 -13 21 -4 0 -7 11 -6 25 1 27 22
39 75 44 11 1 10 5 -4 21 -22 24 -35 26 -35 5 0 -9 -9 -15 -25 -15 -30 0 -33
16 -5 23 30 8 28 57 -2 57 -20 0 -21 1 -6 16 14 15 18 15 42 -1 16 -10 33 -14
43 -10 12 5 14 9 6 12 -7 3 -13 11 -13 18 0 7 -4 15 -10 17 -5 2 -12 19 -15
38 -4 27 -3 30 4 15 5 -11 10 -16 10 -12 1 4 12 -4 26 -18 31 -31 45 -32 45
-4 0 16 -5 20 -20 16 -11 -3 -23 -1 -26 4 -11 18 -14 58 -5 63 15 10 43 -6 37
-20 -3 -8 -1 -14 4 -14 6 0 10 9 10 21 0 11 4 18 9 14 14 -8 21 9 11 25 -6 10
-3 21 7 32 9 10 13 18 10 18 -4 0 -9 0 -12 0 -3 0 -5 -2 -5 -5 1 -9 -28 -35
-37 -35 -5 0 -10 12 -11 26 -3 38 -20 56 -42 44 -15 -8 -17 -6 -13 9 6 23 -13
36 -32 21 -11 -9 -12 -7 -8 9 3 13 -4 28 -22 45 -25 23 -25 24 -4 19 14 -4 20
-2 16 4 -4 6 0 16 7 23 12 9 19 7 34 -8 16 -16 22 -17 37 -5 11 7 13 13 7 13
-16 0 -15 11 4 35 13 17 16 18 24 5 8 -12 13 -13 30 -2 25 15 31 15 25 -1 -7
-17 53 -43 68 -28 6 6 21 11 34 11 16 0 23 6 23 19 0 10 7 24 16 31 8 8 20 23
26 34 8 17 8 19 -3 9 -16 -16 -40 2 -32 23 7 20 43 17 62 -4 21 -25 41 -31 69
-21 19 7 24 4 34 -19 12 -28 15 -37 17 -60 0 -7 5 -10 11 -7 5 3 7 19 4 34 -7
34 8 47 29 26 12 -11 17 -12 20 -2 3 8 10 5 21 -10 13 -17 26 -22 56 -20 43 1
47 8 27 47 -13 28 -11 90 4 90 5 0 9 -4 9 -10 0 -5 4 -10 9 -10 14 0 23 31 13
44 -17 21 -20 55 -6 67 8 6 11 15 8 20 -3 5 2 6 11 3 11 -5 14 -2 9 10 -4 11
-1 16 11 16 13 0 16 6 13 25 -3 14 -1 25 5 25 5 0 15 7 22 16 6 9 27 17 46 18
29 2 34 5 31 25 -2 18 2 21 18 16 12 -4 27 -1 35 5 8 6 20 8 27 4 7 -5 27 -7
44 -5 25 2 34 -2 39 -19 6 -20 7 -21 20 -3 11 14 16 15 26 6 9 -9 16 -10 26
-2 9 9 19 7 38 -5 30 -20 35 -20 35 -2 0 13 4 13 35 0 43 -18 49 -18 42 0 -4
10 3 14 30 13 20 -1 31 -3 25 -5 -15 -5 -3 -32 14 -32 8 0 14 4 14 10 0 5 12
16 27 24 24 12 28 20 29 63 l1 50 -40 1 c-22 1 -42 4 -45 6 -7 8 59 67 68 61
5 -3 12 4 15 15 5 16 10 18 20 10 9 -8 14 -5 18 11 3 11 4 29 2 40 -4 22 -1
23 27 8 16 -9 23 -7 35 10 15 22 33 28 33 11z m25302 -1930 c11 0 29 -11 40
-25 11 -14 26 -25 34 -25 19 0 15 -32 -5 -38 -8 -3 -11 0 -7 7 4 6 3 11 -3 11
-6 0 -8 -12 -4 -30 3 -19 1 -30 -6 -30 -6 0 -22 -10 -36 -22 -30 -26 -54 -31
-72 -16 -10 8 -12 7 -8 -3 3 -8 -2 -23 -10 -34 -15 -20 -16 -19 -13 4 3 21 -4
29 -41 48 -1 1 0 7 4 13 5 8 11 8 21 -1 8 -6 16 -10 17 -8 31 41 51 77 49 88
-2 8 4 21 15 29 15 12 15 14 1 9 -9 -3 -19 0 -22 9 -4 10 -14 13 -33 8 -16 -4
-25 -3 -21 1 11 11 73 22 76 13 2 -4 13 -8 24 -8z m-26837 -2555 c-14 -14 -24
-29 -21 -34 4 -5 1 -11 -6 -13 -6 -2 -8 -10 -4 -17 11 -17 45 18 38 39 -3 8 4
5 15 -7 26 -30 37 -29 62 5 12 15 18 19 15 9 -4 -11 0 -23 11 -31 14 -10 15
-15 5 -21 -7 -4 -16 -2 -20 5 -6 10 -9 9 -12 -1 -3 -8 -13 -14 -24 -14 -14 0
-21 -9 -25 -35 -4 -19 -7 -31 -8 -27 -1 9 -31 -17 -31 -27 0 -3 10 -10 21 -17
17 -9 23 -8 30 2 7 12 11 11 19 -1 7 -11 5 -16 -5 -18 -9 -2 -15 -15 -15 -33
0 -22 -5 -29 -20 -29 -11 0 -20 7 -20 16 0 8 5 12 10 9 13 -8 13 1 0 26 -6 10
-17 19 -24 19 -20 0 -29 30 -11 36 8 4 15 12 15 20 0 8 7 14 16 14 11 0 14 6
8 23 -9 31 -14 34 -25 14 -6 -9 -16 -17 -24 -17 -8 0 -19 -8 -24 -17 -10 -17
-10 -17 -11 0 0 9 5 17 10 17 6 0 10 7 10 15 0 32 -31 5 -34 -30 -1 -5 -11
-10 -23 -10 -13 0 -22 -5 -20 -10 1 -6 9 -10 17 -10 8 0 16 -10 18 -23 3 -20
0 -22 -23 -16 -19 5 -30 1 -40 -12 -8 -11 -14 -14 -15 -6 0 6 -7 12 -16 12
-24 0 -12 -35 14 -38 12 -2 22 -10 22 -18 0 -8 5 -14 11 -14 5 0 7 -5 4 -11
-5 -6 -11 -4 -19 7 -13 17 -41 11 -31 -7 4 -5 1 -9 -4 -9 -6 0 -11 7 -11 15 0
18 -16 20 -23 3 -3 -7 -6 -3 -6 10 -1 35 -21 16 -22 -21 -1 -18 -3 -24 -6 -15
-2 9 -14 20 -26 24 -26 8 -52 33 -43 42 4 3 16 1 26 -6 15 -9 26 -9 44 -1 34
16 42 39 13 39 -18 0 -19 2 -7 10 8 5 15 15 16 22 0 7 2 19 2 26 1 7 12 17 25
23 20 9 20 9 -6 6 -15 -3 -30 0 -33 4 -3 5 -14 9 -25 9 -10 0 -19 4 -19 9 0 5
9 7 20 4 13 -4 20 0 20 10 0 8 7 17 15 21 10 4 14 -1 12 -17 -1 -14 3 -22 13
-22 8 0 15 7 15 15 0 8 4 20 8 27 4 6 1 14 -5 16 -7 3 -3 6 10 6 18 1 23 6 22
24 -4 38 0 43 14 17 12 -23 10 -28 -12 -52 -18 -19 -22 -32 -17 -45 8 -16 9
-15 13 5 3 19 8 23 27 18 14 -4 27 0 35 9 7 9 21 13 30 10 16 -5 27 11 34 48
2 12 51 34 54 25 2 -5 -8 -20 -23 -33z"/>
<path d="M17147 34514 c-1 -1 -643 -5 -1427 -8 -1713 -7 -3283 -17 -3475 -21
-77 -2 -230 -4 -340 -6 -110 -1 -181 -4 -157 -6 31 -3 42 -9 43 -21 0 -10 3
-12 6 -4 3 7 24 12 54 12 30 0 48 -4 44 -10 -4 -6 19 -7 62 -4 69 6 581 9 663
4 25 -2 87 1 138 6 51 6 95 7 97 4 4 -7 271 -4 348 4 31 4 57 3 57 -2 0 -4 67
-8 150 -9 82 0 148 3 145 6 -2 4 28 7 66 7 38 0 69 -3 69 -8 0 -4 9 -8 20 -8
11 0 20 4 20 9 0 6 23 10 50 9 31 0 50 -4 50 -11 0 -7 5 -5 10 3 8 12 11 13
19 1 5 -7 11 -9 14 -4 3 5 42 10 87 11 53 2 79 -1 75 -8 -8 -13 31 -13 75 1
41 12 498 20 506 8 2 -4 57 -6 122 -3 64 3 389 7 722 9 333 2 611 4 618 5 6 0
18 0 25 0 6 0 181 1 387 3 210 2 383 0 393 -6 10 -4 26 -5 35 -1 14 6 125 13
236 15 11 0 32 -5 47 -11 22 -10 32 -8 54 6 25 16 28 17 39 2 8 -11 17 -14 27
-7 20 13 63 11 78 -3 11 -10 13 -10 7 0 -5 7 -1 12 9 12 9 0 13 -5 10 -10 -9
-14 16 -8 33 8 16 15 38 10 35 -7 -2 -6 4 -11 13 -11 8 0 12 -4 9 -10 -3 -5
-2 -10 4 -10 5 0 26 -16 46 -37 19 -20 35 -31 35 -25 0 7 -5 12 -12 12 -6 0
-8 3 -5 6 9 9 38 -16 31 -27 -3 -5 0 -8 7 -7 7 2 13 -2 14 -9 0 -7 6 -18 13
-25 10 -10 14 -10 21 0 5 9 12 8 27 -4 16 -13 16 -15 2 -10 -26 8 -22 -3 9
-30 16 -13 35 -21 44 -19 19 6 44 -19 34 -36 -5 -8 -1 -9 14 -4 18 5 22 3 19
-11 -2 -10 3 -19 10 -20 6 -1 20 -2 30 -4 10 -1 12 -3 5 -7 -21 -8 -15 -26 7
-20 15 4 20 0 20 -14 0 -12 5 -16 15 -13 8 3 22 -1 30 -10 9 -9 14 -16 10 -16
-4 0 1 -7 10 -16 9 -9 19 -14 22 -10 3 3 12 1 20 -5 10 -9 10 -15 2 -25 -11
-14 -1 -20 26 -14 5 1 7 -2 2 -6 -11 -11 23 -43 39 -37 9 3 14 0 12 -8 -2 -9
4 -13 16 -11 10 2 16 0 13 -5 -2 -4 6 -19 19 -33 20 -21 24 -22 24 -7 0 10 5
15 10 12 6 -3 10 -14 10 -24 0 -25 36 -55 56 -47 12 5 15 2 10 -9 -3 -9 -2
-14 3 -10 13 8 42 -5 35 -16 -8 -14 15 -39 35 -38 11 0 9 3 -6 9 -26 10 -30
19 -9 16 21 -3 47 -27 40 -37 -3 -5 2 -9 10 -9 10 0 16 -9 17 -22 0 -13 3 -17
6 -10 6 16 33 -3 29 -21 -1 -7 -1 -9 1 -5 11 18 75 -26 67 -47 -6 -15 48 -57
68 -53 7 2 12 -3 10 -10 -1 -8 2 -11 8 -7 15 9 40 -14 40 -37 0 -11 6 -18 13
-16 8 2 27 -12 42 -30 21 -25 30 -30 36 -20 7 10 9 9 9 -4 0 -9 9 -18 22 -20
12 -2 28 -13 34 -26 15 -30 29 -42 20 -17 -7 18 -5 18 17 -3 13 -12 29 -22 35
-22 7 0 12 -5 12 -10 0 -16 61 -80 76 -80 8 0 11 -6 7 -16 -5 -13 -2 -15 17
-9 16 5 20 4 15 -5 -8 -13 23 -52 36 -44 5 3 9 -1 9 -8 1 -18 75 -68 101 -68
13 0 23 -10 30 -30 6 -16 27 -39 47 -52 20 -12 50 -37 66 -56 16 -18 34 -31
40 -29 5 2 24 -11 41 -28 37 -38 72 -65 61 -47 -4 7 -2 12 4 12 7 0 14 -9 17
-20 3 -11 9 -17 14 -14 5 3 9 -1 9 -9 0 -21 40 -52 62 -49 16 3 19 0 15 -12
-4 -9 -2 -16 4 -16 6 0 20 -11 30 -25 11 -13 26 -22 33 -19 7 3 19 -2 26 -11
7 -8 9 -15 4 -15 -4 0 7 -13 24 -29 31 -26 81 -37 83 -17 1 7 -220 195 -286
243 -6 5 -31 26 -55 48 -25 22 -63 54 -84 70 -22 17 -47 37 -56 45 -9 9 -49
42 -90 75 -71 56 -157 126 -245 200 -22 19 -59 49 -82 67 -209 166 -272 218
-303 247 -19 18 -51 45 -70 60 -19 14 -37 28 -40 31 -3 3 -43 37 -90 75 -115
94 -106 87 -185 150 -38 30 -90 73 -115 94 -25 21 -81 67 -125 102 -99 79
-116 93 -177 147 -27 23 -52 42 -56 42 -4 0 -27 18 -52 41 -78 70 -82 70 -271
67 -93 -1 -171 -3 -172 -4z"/>
<path d="M11481 34377 c-46 -39 -95 -81 -108 -92 -14 -11 -42 -36 -63 -55 -21
-19 -59 -53 -86 -75 -55 -45 -146 -125 -154 -134 -3 -3 -21 -18 -41 -33 -20
-15 -54 -44 -76 -65 -56 -54 -161 -144 -168 -143 -3 0 -29 -22 -58 -49 -28
-28 -70 -66 -92 -85 -22 -20 -40 -41 -40 -48 0 -7 -10 -18 -23 -24 -19 -9 -20
-13 -8 -17 9 -4 16 -1 16 5 0 6 6 5 17 -3 11 -10 14 -10 9 -1 -5 8 0 12 16 12
18 0 20 2 8 10 -11 7 -11 10 -2 10 7 0 17 10 22 23 5 12 9 16 9 10 1 -18 31
-16 31 1 0 8 7 17 16 20 9 3 14 12 12 18 -7 19 20 40 41 33 14 -4 23 1 32 17
11 21 11 22 -4 9 -10 -7 -17 -9 -17 -4 0 18 24 33 53 33 25 0 29 3 24 21 -4
16 -3 19 5 11 9 -9 16 -4 30 18 10 17 22 30 28 30 5 0 10 7 10 15 0 11 7 14
24 9 22 -5 24 -3 19 17 -5 18 -3 21 10 16 9 -3 19 -1 23 5 5 7 2 8 -7 3 -10
-5 -11 -5 -4 3 6 5 19 12 30 14 11 2 21 12 23 23 6 30 32 55 50 48 10 -4 13
-2 8 5 -4 8 2 16 16 21 13 6 17 10 10 10 -20 1 -4 21 17 21 9 0 27 13 39 30
13 16 26 29 30 29 22 -4 31 3 25 18 -5 12 -3 14 7 8 8 -5 11 -4 7 2 -10 16 21
39 34 26 12 -12 34 6 55 43 6 10 21 20 33 22 12 2 21 11 21 20 0 15 -2 15 -10
2 -5 -8 -10 -10 -10 -4 0 18 28 37 46 30 14 -6 15 -4 4 9 -11 14 -10 17 8 22
12 3 22 10 22 15 0 5 5 6 10 3 16 -10 81 44 78 63 -2 12 3 16 17 14 14 -2 16
0 7 6 -10 7 -9 12 4 23 12 9 15 10 10 2 -4 -8 -2 -13 4 -13 7 0 9 7 6 16 -3 9
-6 18 -6 20 0 13 -24 -3 -99 -69z"/>
<path d="M12886 33743 c-1 -1 -300 -3 -665 -3 -422 -1 -660 -5 -654 -11 12
-12 56 -13 593 -11 19 0 118 0 220 0 192 -1 208 -1 250 2 14 1 81 2 150 2 69
1 154 1 190 2 36 1 99 -2 140 -5 41 -4 78 -5 82 -2 12 7 621 17 753 12 52 -2
186 9 193 15 4 4 -276 6 -621 4 -346 -1 -630 -4 -631 -5z"/>
<path d="M18033 33387 c-4 -6 -8 -16 -8 -22 -1 -14 54 -47 65 -40 6 3 7 0 4
-8 -4 -10 2 -14 18 -13 18 1 22 -4 20 -19 -2 -12 0 -16 5 -9 4 6 17 8 27 4 14
-5 16 -9 7 -14 -9 -6 -8 -12 5 -27 9 -10 21 -16 25 -13 5 3 9 0 9 -6 0 -7 7
-9 16 -6 13 5 14 4 6 -7 -16 -19 -3 -30 16 -14 13 10 15 9 9 -7 -5 -13 -3 -17
8 -13 8 4 23 -5 35 -21 12 -15 33 -29 47 -32 15 -3 29 -12 31 -20 4 -11 2 -13
-9 -5 -8 6 -6 2 4 -7 22 -21 42 -24 31 -5 -5 8 -2 8 9 -2 9 -7 17 -22 17 -31
0 -11 13 -24 30 -32 17 -7 30 -17 30 -21 0 -5 5 -5 10 -2 6 3 10 1 10 -6 0
-12 74 -81 85 -79 4 1 15 -8 24 -19 10 -12 22 -21 27 -21 5 0 15 -9 22 -21 7
-11 19 -18 27 -15 8 3 16 0 18 -7 3 -8 7 -5 12 6 4 10 6 19 4 20 -2 2 -48 39
-103 82 -54 44 -120 96 -146 115 -48 36 -124 96 -195 156 -22 18 -57 46 -77
61 -21 15 -66 52 -102 80 -46 37 -67 49 -73 40z"/>
<path d="M10117 33217 c4 -18 -7 -32 -56 -70 -54 -43 -119 -98 -161 -137 -28
-26 -293 -254 -341 -293 -52 -42 -59 -65 -20 -62 38 3 38 3 44 28 4 14 24 31
59 47 34 17 53 32 53 43 0 10 14 31 31 47 24 22 34 26 43 17 9 -9 11 -8 5 7
-5 13 -4 17 4 12 7 -4 12 -1 12 9 0 9 6 15 13 12 17 -6 49 12 41 24 -9 15 16
39 42 39 17 0 22 4 18 15 -4 9 0 15 10 15 9 0 16 5 16 10 0 6 7 10 16 10 10 0
14 6 10 15 -3 8 0 14 6 12 7 -1 12 5 13 13 0 9 10 15 24 15 15 0 28 10 38 30
18 36 104 120 118 116 6 -1 -1 9 -14 23 -30 32 -29 31 -24 3z"/>
<path d="M19356 32543 c-23 -4 -27 -8 -23 -26 37 -152 41 -163 56 -126 l10 24
2 -25 c1 -14 1 -31 0 -39 -2 -7 2 -10 7 -7 14 9 35 -45 22 -58 -7 -7 -10 -5
-10 7 0 9 -4 16 -9 15 -4 -2 -29 15 -54 37 -25 22 -64 56 -88 75 -23 19 -48
41 -55 48 -8 7 -19 10 -25 6 -8 -4 -9 -3 -5 4 4 7 1 12 -9 12 -9 0 -13 -4 -10
-10 3 -5 1 -10 -5 -10 -7 0 -9 8 -5 19 3 10 -1 23 -10 31 -19 16 -49 5 -38
-14 14 -25 112 -98 123 -91 6 3 7 -1 4 -10 -4 -9 -3 -15 2 -14 22 4 35 -2 28
-13 -4 -6 -3 -8 3 -5 13 8 36 -17 25 -28 -4 -5 -1 -5 6 -1 6 4 12 2 12 -3 0
-6 7 -11 15 -11 8 0 14 -3 14 -7 -3 -20 3 -23 24 -12 20 11 21 11 8 -4 -12
-15 -11 -17 3 -17 10 0 15 -4 12 -9 -3 -5 1 -14 9 -21 8 -7 15 -20 15 -29 0
-18 36 -54 59 -59 9 -2 9 3 1 19 -13 23 -4 41 9 20 5 -8 14 -10 22 -6 8 5 11
5 7 0 -11 -11 12 -36 25 -28 6 4 8 0 4 -10 -3 -9 1 -18 9 -21 23 -9 36 -7 29
4 -9 14 8 12 25 -2 8 -7 6 -3 -4 9 -10 13 -22 21 -26 18 -4 -2 -16 6 -27 18
-35 38 -62 57 -68 47 -4 -6 -18 -9 -33 -9 -15 1 -20 3 -11 6 11 3 16 17 17 48
0 25 -4 47 -9 51 -5 3 -9 15 -9 28 0 12 -3 26 -7 30 -12 11 -15 94 -4 101 17
10 13 26 -6 23 -12 -2 -18 3 -17 15 1 9 -1 16 -5 16 -3 -1 -19 -4 -35 -6z"/>
<path d="M19640 32083 c0 -8 75 -68 82 -65 4 1 8 -5 8 -14 0 -11 6 -15 19 -11
13 3 18 0 15 -8 -5 -13 13 -31 36 -37 8 -2 20 -10 27 -18 6 -8 21 -16 32 -16
12 -1 25 -2 29 -3 16 -2 72 -63 66 -73 -7 -10 21 -45 48 -59 14 -7 16 -6 12 6
-8 19 10 20 26 0 7 -8 16 -12 21 -9 5 3 -35 40 -88 82 -54 42 -127 100 -163
129 -36 29 -78 63 -93 76 -23 18 -77 32 -77 20z"/>
<path d="M14253 15322 c-40 -3 -42 -5 -48 -43 -7 -39 -18 -45 -70 -40 -5 0
-11 -26 -13 -58 l-3 -58 36 1 c20 1 35 6 35 13 0 7 5 24 12 38 10 23 16 25 78
25 48 0 68 -4 67 -12 -2 -62 2 -68 43 -68 l40 0 0 59 0 60 -37 3 c-34 3 -38 6
-46 39 -9 41 -22 46 -94 41z"/>
<path d="M15471 14583 l2 -63 43 0 c23 0 49 -3 58 -6 14 -5 16 4 16 64 l0 71
-60 -2 -60 -2 1 -62z"/>
<path d="M14116 14622 c-54 -3 -58 -4 -52 -25 3 -12 6 -41 6 -64 l0 -43 55 1
c40 1 61 -3 74 -15 18 -17 19 -15 22 33 7 98 -11 118 -105 113z"/>
<path d="M12770 14602 c-41 -6 -50 -21 -50 -84 0 -55 1 -58 19 -48 27 14 93
12 114 -4 9 -7 17 -25 17 -39 0 -21 5 -25 35 -29 20 -2 38 -2 40 1 3 2 5 30 5
62 l0 57 -37 -1 c-36 -2 -38 0 -41 30 -5 50 -34 65 -102 55z"/>
<path d="M853 14485 c-18 -18 -33 -40 -33 -47 0 -8 -5 -19 -11 -25 -8 -8 -6
-24 6 -59 15 -45 15 -49 0 -60 -14 -10 -14 -15 -3 -33 14 -23 24 -26 33 -11 5
8 11 8 20 0 10 -8 14 -7 18 7 4 14 5 13 6 -4 1 -17 -5 -23 -20 -23 -12 0 -19
-5 -16 -12 2 -7 12 -12 21 -12 14 2 14 -1 5 -13 -11 -12 -5 -14 47 -9 32 3
115 5 184 5 179 -1 211 1 231 12 11 6 20 5 24 -1 7 -12 691 -14 699 -2 2 4 19
9 36 10 17 1 29 -2 26 -7 -7 -10 559 -15 576 -5 7 4 31 7 54 5 23 -1 44 2 47
7 4 4 -19 7 -51 5 -109 -7 -146 -4 -159 14 -10 12 -13 13 -13 3 0 -11 -3 -11
-12 -2 -15 15 -52 16 -43 1 4 -6 13 -8 21 -5 8 3 14 1 14 -4 0 -6 -10 -10 -22
-11 -13 0 -32 -2 -43 -4 -10 -2 -24 0 -30 4 -11 9 -62 8 -71 -1 -7 -8 -44 3
-44 13 0 5 -10 5 -23 0 -39 -15 -96 -11 -107 8 -9 15 -9 14 -10 -2 0 -16 -2
-16 -25 -1 -20 13 -28 14 -39 4 -10 -8 -20 -8 -33 -1 -12 6 -25 6 -34 0 -17
-11 -62 -12 -56 -1 3 4 -16 6 -41 5 -26 -2 -55 -3 -65 -3 -9 -1 -15 -5 -12
-11 4 -5 -3 -9 -14 -9 -10 0 -22 6 -24 13 -4 10 -6 10 -6 0 -1 -7 -13 -13 -28
-13 -27 1 -27 1 -9 15 11 8 16 18 11 22 -4 5 -10 2 -12 -4 -3 -7 -12 -13 -20
-13 -9 0 -13 -6 -10 -14 4 -10 -3 -14 -29 -14 -19 0 -31 4 -28 10 4 6 -7 7
-29 3 -30 -6 -35 -4 -40 16 -7 25 12 54 20 32 3 -7 12 -13 21 -13 15 1 15 2 0
14 -23 17 -23 26 2 26 34 0 22 17 -17 25 -21 4 -32 10 -25 12 25 9 13 40 -19
47 -43 8 -51 8 -44 -4 3 -5 17 -10 31 -10 13 0 24 -5 24 -11 0 -6 -8 -8 -17
-5 -69 20 -72 20 -71 -13 1 -35 6 -38 22 -16 9 12 17 13 49 3 39 -12 51 -38
17 -38 -19 0 -27 -20 -13 -34 4 -3 7 -14 8 -24 1 -16 -5 -16 -71 -7 -40 5 -76
13 -80 18 -11 11 -64 8 -64 -4 0 -6 -9 -8 -22 -3 -13 4 -32 7 -43 6 -17 -1
-16 1 5 13 14 7 27 10 30 6 3 -4 28 -7 55 -8 28 0 64 -3 80 -7 17 -3 24 -3 18
0 -8 3 -11 15 -7 30 5 18 0 30 -15 43 -11 10 -21 23 -21 30 0 6 -17 11 -40 11
-29 0 -40 -4 -40 -15 0 -12 4 -13 19 -5 11 5 27 7 35 4 14 -5 14 -9 -1 -37
-20 -41 -20 -40 -33 -32 -8 5 -7 10 4 18 11 8 13 17 7 26 -8 12 -12 12 -25 2
-11 -9 -16 -10 -16 -2 0 19 -37 12 -43 -9 -7 -28 -37 -37 -52 -17 -7 10 -16
17 -21 17 -15 0 -39 -43 -39 -70 0 -20 -6 -26 -27 -28 -15 -2 -37 3 -50 10
-13 7 -26 11 -30 10 -5 -1 -8 3 -8 9 0 6 -9 8 -21 4 -12 -4 -19 -3 -16 2 3 5
-4 10 -15 10 -16 2 -18 -1 -9 -10 16 -16 14 -30 -4 -23 -8 3 -15 0 -15 -6 0
-6 -10 -3 -22 8 -21 19 -21 19 -14 0 5 -16 4 -17 -9 -6 -9 7 -14 19 -11 26 2
6 -5 15 -17 18 -21 6 -21 7 -3 21 11 8 16 21 13 30 -4 8 -2 15 3 15 13 0 13
37 0 45 -5 3 -10 -3 -10 -14 0 -11 -10 -29 -22 -41 -18 -17 -24 -18 -37 -6
-26 21 -45 31 -37 18 4 -7 2 -12 -3 -12 -6 0 -11 -4 -11 -10 0 -5 9 -10 20
-10 11 0 20 -4 20 -10 0 -17 -38 -11 -52 8 -7 10 -21 21 -30 25 -10 3 -18 13
-18 21 0 8 -2 21 -5 28 -4 9 7 18 29 26 22 8 39 24 48 42 14 33 34 39 41 13 3
-12 5 -8 6 9 0 14 4 28 9 31 4 2 1 2 -5 1 -7 -2 -13 1 -13 6 0 6 -7 10 -15 10
-8 0 -15 -9 -15 -20 0 -22 -16 -27 -23 -7 -2 7 -8 8 -13 3 -5 -5 -4 -11 4 -13
20 -8 15 -42 -7 -40 -22 1 -24 43 -3 65 10 11 17 34 10 31 -2 0 -18 -16 -35
-34z"/>
<path d="M13401 14217 c-5 -12 -10 -31 -12 -42 -3 -15 -13 -21 -42 -23 l-37
-3 0 -60 0 -59 31 0 c16 0 28 4 25 9 -4 5 0 12 6 14 7 3 -2 3 -20 0 -32 -6
-33 -5 -26 23 7 27 29 53 47 54 5 0 5 -4 2 -10 -7 -12 0 -13 86 -10 l67 2 9
-39 c8 -33 13 -38 41 -41 26 -3 32 0 32 17 0 11 -5 23 -10 26 -6 4 -9 1 -8 -6
2 -7 -4 -14 -13 -16 -23 -6 -42 47 -23 65 8 7 14 9 14 5 0 -4 11 -9 25 -9 20
-2 25 3 25 20 0 20 -4 22 -32 18 -18 -3 -36 -10 -40 -16 -4 -6 -7 -2 -6 9 1
11 -2 36 -6 57 l-7 36 -60 0 c-52 0 -61 -3 -68 -21z"/>
<path d="M14232 14178 c-8 -8 -53 -14 -120 -16 -59 -2 -111 -8 -116 -13 -6 -5
8 -9 36 -9 32 0 48 -5 52 -15 4 -12 -4 -15 -39 -15 -25 0 -45 5 -45 11 0 5 -4
7 -10 4 -5 -3 -10 -24 -10 -46 l0 -39 95 0 c69 0 95 3 95 13 0 8 -15 11 -50 9
-29 -2 -50 0 -50 6 0 6 26 10 58 10 77 0 82 0 82 13 0 6 -6 9 -14 6 -20 -8
-28 4 -15 20 9 10 7 13 -11 13 -35 0 -20 8 23 13 36 4 67 21 67 38 0 13 -14
11 -28 -3z"/>
<path d="M4826 13868 c-2 -35 -4 -72 -4 -83 0 -11 -3 -39 -7 -62 -8 -43 -8
-43 23 -43 17 0 35 6 39 13 4 8 19 14 33 14 68 1 72 2 65 24 -5 14 0 27 14 40
47 44 15 93 -80 124 -27 9 -47 21 -43 26 3 5 -4 9 -15 9 -17 0 -20 -9 -25 -62z"/>
<path d="M15976 13358 c5 -63 15 -93 77 -220 39 -82 73 -148 76 -148 13 0 6
56 -8 66 -10 8 -11 13 -3 18 7 4 19 -9 31 -31 14 -27 20 -32 21 -18 0 18 1 18
16 3 19 -19 11 -53 -10 -45 -8 3 -20 -1 -26 -9 -11 -12 -6 -14 26 -14 l39 0
-1 53 c-1 28 -2 57 -3 62 0 6 -16 9 -34 7 -31 -3 -35 0 -52 35 -9 21 -32 70
-50 108 -59 125 -85 185 -85 195 0 6 -5 10 -10 10 -6 0 -8 -26 -4 -72z"/>
<path d="M15294 13115 c-6 -44 -7 -45 -44 -45 -42 0 -50 -11 -50 -66 0 -25 4
-34 18 -35 10 0 12 -3 5 -6 -23 -9 -13 -18 19 -18 30 0 33 3 43 45 l11 45 65
-1 c58 -1 64 -3 67 -23 2 -12 8 -19 13 -16 5 4 5 13 0 23 -5 9 -5 26 -2 36 4
11 3 39 -2 63 l-10 43 -63 0 -63 0 -7 -45z"/>
<path d="M13554 13133 c-52 -4 -52 -4 -58 -43 -3 -22 -10 -41 -14 -41 -4 -1
-20 -2 -37 -3 -29 -2 -30 -3 -33 -61 l-3 -60 35 -1 c33 -1 36 1 42 35 9 46 17
51 82 51 30 0 59 6 66 13 8 7 32 13 55 12 22 -1 41 3 41 7 0 4 -18 8 -40 8
-39 0 -40 1 -51 45 -6 25 -16 44 -23 43 -6 -1 -34 -3 -62 -5z"/>
<path d="M14255 13050 c-11 -5 -15 -9 -9 -9 13 -1 10 -40 -5 -69 -7 -13 -17
-19 -26 -16 -9 4 -22 1 -30 -6 -20 -16 -65 -4 -66 18 0 14 -2 14 -9 -3 -5 -11
-9 -23 -9 -26 -1 -4 69 -7 156 -8 136 -2 155 0 144 13 -8 10 -29 13 -67 12
-45 -2 -51 0 -34 9 16 8 18 13 8 23 -9 9 -9 12 1 12 7 0 11 6 8 14 -7 17 13
26 59 26 19 0 34 4 34 9 0 12 -128 12 -155 1z"/>
<path d="M15266 11793 c-4 -5 -65 -9 -134 -10 -70 -1 -219 -4 -332 -8 -264 -8
-282 -8 -364 -4 -47 2 -71 -1 -74 -9 -5 -15 -48 -16 -57 -2 -8 12 -225 11
-225 -1 0 -5 -7 -9 -15 -9 -8 0 -15 5 -15 10 0 6 -7 10 -15 10 -8 0 -15 -6
-15 -12 0 -9 -3 -9 -9 1 -6 10 -20 12 -48 8 -21 -4 -108 -7 -193 -8 l-155 -1
-3 -885 c-3 -531 0 -883 5 -880 10 6 8 -120 -3 -195 -4 -27 -2 -60 4 -78 8
-23 8 -38 -1 -57 -7 -17 -8 -28 -2 -30 6 -2 10 -85 10 -218 l0 -214 75 5 c41
3 131 7 200 8 205 5 202 5 194 19 -6 9 -4 9 8 -1 13 -10 120 -11 549 -5 294 4
558 7 587 5 l53 -1 -7 1282 c-4 705 -8 1283 -9 1285 -1 1 -5 -1 -9 -5z"/>
<path d="M17825 10540 c-9 -14 49 -27 80 -19 25 7 33 5 46 -12 13 -17 22 -20
50 -15 24 5 30 4 19 -3 -25 -17 -4 -23 92 -27 51 -2 95 -9 96 -14 2 -6 8 -10
14 -10 6 0 8 6 5 13 -5 14 75 16 107 2 14 -6 17 -5 11 4 -6 10 -3 11 11 4 13
-7 27 -6 44 3 25 14 25 14 2 14 -12 0 -30 9 -39 19 -13 15 -21 18 -35 10 -10
-6 -16 -13 -14 -17 6 -10 -31 -14 -71 -7 -23 4 -33 12 -35 27 -2 14 -13 24
-32 29 -37 10 -345 9 -351 -1z"/>
<path d="M23037 10313 c-6 -9 -2 -53 23 -323 5 -58 17 -194 25 -304 8 -109 18
-202 21 -207 3 -5 36 -9 73 -9 l68 0 31 153 c17 83 34 177 38 207 3 30 10 65
15 78 5 12 10 37 11 55 1 18 5 37 8 42 11 16 34 211 27 229 -4 10 -3 15 3 11
6 -3 10 -3 11 2 0 4 2 18 5 29 4 26 -18 30 -186 33 -58 1 -119 4 -136 7 -18 3
-34 2 -37 -3z"/>
<path d="M24030 10235 c0 -11 4 -58 9 -105 5 -47 12 -116 15 -155 3 -38 15
-160 25 -270 11 -110 27 -281 36 -380 9 -99 18 -193 20 -210 2 -16 6 -59 9
-95 4 -36 20 -216 36 -400 17 -184 33 -354 36 -378 l5 -43 90 2 c50 2 92 6 95
10 7 11 -42 605 -66 804 -23 195 -23 265 0 390 12 66 24 127 27 135 4 8 5 21
4 29 -1 7 1 20 5 30 3 9 8 25 9 36 5 42 25 154 45 260 21 107 26 138 33 200 2
17 9 40 15 52 10 18 17 82 10 83 -16 2 -204 13 -316 18 -138 7 -142 6 -142
-13z"/>
<path d="M25057 10183 c-4 -8 2 -88 22 -288 6 -55 18 -176 27 -270 20 -213 21
-217 76 -213 24 2 44 9 49 18 4 8 15 67 25 130 9 63 21 123 26 132 4 10 11 39
13 65 3 27 12 84 20 128 9 44 20 106 26 137 5 32 14 69 19 84 6 14 10 39 10
55 l0 29 -154 0 c-85 0 -157 -3 -159 -7z"/>
<path d="M5789 10136 c-2 -3 -74 -9 -159 -15 -150 -11 -181 -20 -161 -46 5 -5
11 -39 15 -75 4 -36 9 -83 12 -105 8 -65 25 -189 29 -210 20 -117 52 -381 48
-392 -4 -11 11 -13 83 -11 l89 3 12 155 c7 85 20 241 29 345 25 299 28 355 17
355 -5 0 -12 -2 -14 -4z"/>
<path d="M4818 10045 c-3 -3 -63 -7 -134 -10 -71 -3 -153 -8 -182 -11 l-54 -6
5 -31 c3 -18 15 -111 27 -207 11 -96 25 -204 30 -240 6 -36 12 -83 14 -105 2
-22 10 -78 16 -125 7 -47 13 -101 15 -120 5 -57 24 -193 31 -220 15 -57 6
-363 -15 -526 -7 -51 -13 -130 -14 -177 -1 -47 -5 -83 -8 -81 -8 5 -18 -143
-12 -183 5 -32 6 -33 57 -33 28 0 56 4 62 8 7 4 14 33 18 65 3 32 7 61 10 65
2 4 7 48 11 97 3 50 8 101 10 115 2 14 8 59 14 100 6 41 18 152 26 245 25 261
44 461 55 560 5 50 14 146 20 215 5 69 15 170 20 225 19 184 30 318 30 352 0
28 -4 33 -23 33 -13 0 -26 -2 -29 -5z"/>
<path d="M3890 9967 c-5 -5 -199 -19 -242 -18 -15 1 -29 -3 -32 -7 -3 -5 -1
-38 4 -73 5 -35 14 -134 21 -219 6 -85 15 -160 21 -166 5 -7 7 -18 6 -25 -2
-8 3 -13 11 -11 12 3 12 0 1 -12 -8 -11 -10 -29 -6 -59 11 -66 19 -127 25
-194 1 -15 88 -18 110 -4 8 5 15 22 16 37 2 16 19 181 40 368 33 310 39 396
25 383z"/>
<path d="M16136 9183 c-1 -1 -141 -3 -311 -4 -171 -1 -332 -4 -359 -7 -76 -7
-33 -22 48 -17 79 5 114 -1 118 -21 3 -12 8 -11 32 1 16 9 34 14 40 11 6 -2 2
-5 -9 -5 -16 -1 -17 -3 -5 -11 8 -5 19 -5 25 -1 12 10 79 22 115 21 173 -5
420 -4 420 2 0 5 9 8 20 8 11 0 20 6 20 14 0 12 -16 14 -76 13 -41 -1 -76 -3
-78 -4z"/>
<path d="M15309 9176 c-2 -2 -285 -7 -629 -11 -344 -5 -690 -10 -770 -11 -80
-1 -249 -3 -376 -3 -169 -1 -235 -5 -248 -14 -14 -11 4 -13 108 -12 69 0 126
4 126 8 0 5 6 5 13 0 6 -4 64 -8 127 -9 130 -1 179 -5 198 -17 7 -5 18 -2 28
7 8 9 32 17 52 17 121 5 212 3 212 -5 0 -5 7 -3 16 5 12 10 125 14 522 17 279
2 527 5 552 6 25 1 72 3 105 5 44 2 55 5 40 11 -21 9 -69 13 -76 6z"/>
<path d="M12585 9132 c-33 -1 -67 -5 -75 -8 -24 -9 18 -35 45 -28 13 3 48 6
79 7 42 2 56 -2 56 -12 0 -10 4 -11 13 -3 16 14 281 32 485 33 34 0 62 5 62
10 0 9 -479 10 -665 1z"/>
<path d="M15819 7785 c-2 -2 -195 -6 -429 -9 -234 -3 -427 -6 -430 -7 -3 0
-31 0 -62 1 -50 1 -58 -1 -58 -17 0 -10 4 -24 9 -31 7 -11 9 -11 13 0 3 8 23
15 44 16 27 2 35 -1 25 -7 -8 -5 -20 -7 -28 -4 -7 3 -13 0 -13 -7 0 -16 61 -3
76 16 7 8 33 17 58 20 39 5 45 4 40 -9 -4 -12 0 -15 15 -14 12 1 21 4 21 7 0
3 9 6 19 6 11 0 17 -4 15 -8 -3 -4 0 -8 5 -8 6 0 11 6 11 13 0 8 19 12 60 13
48 0 57 -2 48 -13 -7 -9 -7 -13 0 -13 6 0 13 4 17 9 3 6 13 10 23 10 9 0 78 3
152 7 147 8 182 8 280 4 64 -3 123 11 103 23 -6 4 -12 5 -14 2z"/>
<path d="M14205 7761 c-64 -4 -83 -8 -67 -14 12 -5 20 -11 18 -15 -4 -8 124
-6 131 2 2 2 19 0 36 -5 23 -6 35 -5 47 6 21 19 66 24 63 8 -2 -7 4 -13 13
-13 8 0 13 4 10 9 -3 5 17 11 44 13 28 1 50 0 50 -3 0 -4 31 -4 70 -1 46 3 75
1 84 -7 10 -9 16 -9 21 -1 4 6 24 11 44 9 51 -3 63 0 56 11 -7 11 -454 11
-620 1z"/>
<path d="M12934 7743 c-8 -5 1 -14 25 -26 20 -9 29 -12 19 -4 -13 11 -4 12 60
10 188 -8 292 -7 297 2 3 6 7 5 11 -2 8 -19 84 -17 84 2 0 14 31 14 78 -1 6
-2 12 1 12 6 0 16 -102 22 -280 16 -96 -3 -182 -5 -190 -6 -8 0 -35 2 -60 5
-25 3 -50 2 -56 -2z"/>
<path d="M12229 6696 c-2 -2 -238 -7 -524 -12 -286 -4 -542 -8 -570 -9 -27 -1
-71 -2 -97 -3 -27 -1 -48 -6 -48 -11 0 -14 61 -25 69 -12 5 7 14 6 29 -5 12
-8 20 -19 17 -24 -3 -4 12 1 32 11 25 13 40 16 47 9 14 -14 43 -13 48 2 7 19
237 20 257 1 8 -9 26 -13 43 -11 15 3 28 1 28 -3 0 -11 60 -42 61 -32 1 5 1
11 0 16 0 4 8 7 19 7 11 0 20 -4 20 -10 0 -5 21 -10 46 -10 40 0 45 2 34 15
-10 12 -10 15 3 15 10 0 14 6 11 15 -7 18 17 20 34 3 8 -8 15 -8 25 0 10 8 16
9 25 0 6 -6 19 -7 29 -3 17 7 17 8 -2 15 -17 7 -15 9 11 9 16 1 35 -4 42 -11
9 -9 12 -9 12 0 0 10 22 12 85 10 47 -2 85 -6 85 -10 0 -3 16 -12 35 -18 19
-6 33 -15 30 -20 -7 -11 8 -20 40 -26 17 -3 25 0 25 10 0 20 27 27 40 10 18
-20 47 -17 53 6 3 11 12 22 21 25 9 3 24 8 34 12 9 3 21 5 26 4 22 -5 95 -3
105 3 24 15 0 22 -53 16 -31 -3 -61 -3 -68 1 -14 8 -153 20 -159 15z"/>
<path d="M10415 6659 c17 -6 50 -10 74 -10 25 0 50 -4 57 -10 7 -5 42 -8 81
-5 41 2 60 1 48 -4 -20 -8 -20 -9 1 -9 11 -1 24 2 27 5 12 12 97 12 90 0 -3
-6 0 -5 8 2 18 17 34 15 19 -3 -10 -12 -10 -15 4 -15 9 0 16 4 16 9 0 5 9 7
20 4 12 -3 20 0 20 6 0 7 5 9 12 4 7 -4 26 -6 42 -4 15 1 26 -1 23 -6 -3 -5
10 -7 29 -5 19 2 34 8 34 12 0 4 -11 5 -25 2 -19 -3 -25 0 -25 14 0 17 -10 19
-93 21 -50 1 -107 -2 -124 -7 -20 -5 -35 -5 -39 1 -3 5 -78 9 -167 8 -119 0
-154 -3 -132 -10z"/>
<path d="M18983 6422 c-37 -2 -63 -8 -63 -14 0 -7 -5 -7 -14 1 -10 8 -16 9
-21 1 -3 -5 -16 -11 -28 -11 -20 -1 -20 -2 -2 -6 11 -3 25 -12 31 -21 10 -14
17 -14 68 2 32 10 101 20 159 23 56 2 149 6 207 9 58 2 120 6 139 7 19 2 50
-2 70 -9 39 -13 61 -9 61 12 0 12 -44 14 -272 12 -150 -2 -301 -4 -335 -6z"/>
<path d="M16667 6404 c-4 -4 -7 -18 -7 -31 0 -20 5 -23 34 -23 19 0 47 -5 62
-10 21 -8 29 -8 36 2 6 10 8 10 8 -1 0 -10 9 -12 33 -7 17 4 54 7 81 8 34 0
44 3 35 10 -10 7 -8 8 6 3 28 -10 145 -12 145 -2 0 4 -14 7 -32 7 -22 0 -29 3
-22 10 8 8 19 7 39 0 33 -13 62 -6 62 16 0 10 -6 13 -16 8 -9 -3 -25 -8 -36
-11 -16 -4 -17 -3 -5 6 12 8 4 11 -33 11 -30 0 -46 -4 -42 -10 3 -5 0 -10 -9
-10 -8 0 -16 5 -18 11 -4 12 -310 24 -321 13z"/>
<path d="M14295 6378 c-27 -5 -111 -9 -185 -10 -90 0 -137 -4 -142 -11 -5 -9
-10 -9 -20 1 -15 15 -152 17 -143 2 3 -5 24 -10 45 -10 21 0 50 -4 64 -10 15
-5 35 -6 49 -1 12 5 43 5 68 2 26 -4 56 -4 69 1 25 9 100 -9 100 -25 0 -5 -10
-7 -23 -4 -12 4 -28 2 -36 -2 -9 -6 -6 -10 14 -15 14 -4 30 -4 35 -1 5 3 53 7
105 9 53 2 98 6 101 8 2 3 7 20 10 38 6 28 5 32 -9 27 -9 -3 -19 -2 -22 3 -7
11 -11 11 -80 -2z"/>
<path d="M10385 6329 c-21 -5 -45 -7 -52 -5 -7 3 -17 -3 -23 -14 -15 -27 -12
-33 10 -27 11 3 20 1 20 -4 0 -5 -13 -9 -29 -9 -17 0 -33 -4 -36 -10 -10 -15
59 -12 91 5 15 8 33 11 38 6 6 -5 35 -11 65 -15 44 -6 53 -5 48 7 -7 18 11 37
35 37 38 0 16 19 -29 25 -89 12 -98 13 -138 4z"/>
<path d="M19068 6072 c-27 -2 -52 -10 -60 -19 -11 -14 -10 -16 15 -11 28 5 28
5 8 -13 -11 -11 -28 -19 -38 -18 -16 0 -16 1 2 10 14 6 7 7 -24 3 -25 -4 -51
-13 -59 -20 -11 -12 1 -14 81 -14 67 0 97 4 100 13 4 10 6 10 6 0 1 -8 15 -13
37 -13 31 0 35 2 24 15 -10 13 -9 15 9 15 11 0 21 5 21 10 0 6 7 10 15 10 8 0
15 -4 15 -10 0 -5 13 -10 29 -10 17 0 33 5 36 10 3 6 -1 10 -9 10 -8 0 -19 6
-23 14 -8 14 -100 23 -185 18z"/>
<path d="M25330 5720 c0 -5 4 -11 9 -15 5 -3 12 -36 16 -73 9 -96 14 -145 17
-147 2 -1 30 -9 63 -18 95 -25 155 -43 235 -72 41 -15 84 -29 95 -30 11 -2 49
-13 85 -25 36 -13 130 -45 210 -72 80 -27 168 -56 195 -63 28 -8 94 -29 147
-48 53 -19 100 -32 103 -29 3 4 9 2 13 -4 4 -5 66 -29 137 -53 72 -23 139 -46
150 -51 11 -5 97 -34 190 -65 94 -30 179 -60 190 -65 11 -5 38 -14 60 -20 22
-7 53 -18 68 -26 16 -8 36 -14 46 -14 9 0 21 -4 27 -9 5 -4 32 -14 59 -20 28
-7 59 -17 70 -21 29 -12 232 -81 247 -84 7 -1 30 -10 52 -19 21 -9 47 -17 57
-17 11 0 19 -4 19 -8 0 -5 6 -9 13 -9 12 0 135 -38 172 -53 38 -15 80 -29 135
-44 30 -8 114 -35 185 -59 147 -50 185 -61 203 -58 6 1 12 -2 12 -7 0 -4 26
-16 58 -26 31 -9 66 -21 77 -26 11 -5 61 -21 110 -36 126 -39 315 -100 345
-112 14 -6 61 -20 105 -32 44 -12 96 -28 115 -35 29 -12 160 -52 195 -60 15
-3 45 -14 100 -37 28 -11 68 -24 90 -29 22 -5 49 -13 60 -18 11 -5 47 -17 80
-26 33 -10 83 -25 110 -35 28 -10 75 -26 105 -36 30 -9 61 -19 68 -22 9 -3 12
40 12 197 l0 201 -27 12 c-16 6 -36 10 -45 10 -10 0 -18 3 -18 7 0 4 -10 7
-22 6 -13 -1 -31 5 -41 13 -9 8 -20 12 -24 9 -3 -4 -11 -3 -17 2 -19 15 -56
20 -56 8 0 -8 -3 -9 -8 -1 -10 15 -91 46 -103 39 -5 -4 -9 -2 -9 3 0 15 -93
32 -108 20 -7 -6 -15 -8 -19 -4 -3 3 0 6 7 6 25 0 -4 20 -57 39 -36 13 -50 15
-47 6 3 -7 -5 -14 -20 -17 -22 -4 -24 -3 -15 13 8 16 5 19 -18 24 -16 4 -36
10 -45 16 -24 13 -61 12 -52 -2 3 -6 14 -9 24 -6 13 3 17 0 13 -9 -6 -17 -25
-14 -41 9 -19 25 -63 45 -92 42 -41 -4 -41 -4 -34 -17 5 -8 0 -7 -11 2 -17 14
-17 15 -1 18 14 3 12 7 -10 19 -16 8 -39 12 -52 10 -12 -2 -26 2 -30 9 -4 7
-16 15 -27 17 -11 2 -27 7 -35 10 -8 3 -31 8 -50 11 -70 12 -78 14 -98 25 -11
6 -32 11 -46 11 -14 0 -28 5 -31 10 -3 6 -17 10 -31 10 -13 0 -24 5 -24 10 0
6 -18 10 -40 10 -22 0 -40 4 -40 10 0 5 -16 7 -35 5 -26 -4 -33 -1 -29 8 5 13
-6 17 -51 18 -10 0 -24 4 -30 9 -14 11 -134 50 -155 50 -13 0 -13 -1 0 -10 9
-6 10 -10 3 -10 -7 0 -17 8 -22 19 -11 20 -71 35 -71 17 0 -6 -6 -4 -13 5 -17
23 -53 32 -77 19 -16 -8 -20 -8 -20 3 0 8 -19 21 -42 30 -78 28 -88 29 -94 13
-3 -9 -10 -14 -15 -11 -4 3 -6 11 -3 18 6 16 -64 39 -73 24 -3 -6 -1 -7 5 -3
8 5 10 2 6 -8 -9 -24 -27 -19 -21 5 5 19 -4 28 -35 33 -7 1 -18 5 -25 9 -22
14 -105 36 -117 31 -7 -3 -26 2 -42 11 -16 8 -40 15 -54 15 -14 0 -34 7 -44
15 -11 8 -28 15 -38 15 -10 0 -18 5 -18 10 0 6 -13 10 -29 10 -17 0 -33 5 -36
10 -8 13 -58 13 -71 0 -7 -7 -17 -3 -32 10 -11 11 -26 20 -32 20 -5 0 -10 5
-10 11 0 7 -12 10 -29 7 -21 -3 -28 -1 -24 9 3 9 -4 13 -21 13 -27 0 -35 -15
-13 -23 9 -4 9 -6 0 -6 -6 -1 -15 4 -18 9 -3 6 -17 10 -30 10 -19 0 -23 4 -18
18 3 9 3 14 -2 10 -4 -4 -14 -3 -22 4 -7 6 -16 8 -20 5 -3 -4 -12 -2 -20 4 -7
6 -13 8 -13 5 0 -4 -10 0 -22 8 -25 18 -42 21 -33 6 3 -5 -3 -10 -14 -10 -14
0 -19 5 -15 15 4 8 2 16 -2 16 -5 1 -19 3 -31 4 -12 1 -37 8 -54 16 -25 10
-34 10 -37 1 -2 -7 -11 -12 -20 -12 -15 0 -15 2 -2 10 12 7 10 9 -7 7 -12 0
-19 -5 -17 -9 3 -4 1 -8 -5 -8 -5 0 -13 5 -16 10 -3 6 -17 10 -30 10 -13 0
-26 4 -29 9 -4 5 -25 12 -48 16 -23 4 -49 11 -58 16 -8 4 -23 10 -33 13 -10 3
-16 10 -13 15 3 5 -3 7 -14 4 -12 -3 -20 0 -20 7 0 7 -8 10 -20 7 -26 -7 -93
13 -104 31 -6 11 -10 12 -16 2 -4 -7 -13 -9 -20 -5 -9 6 -9 9 0 15 8 5 7 9 -4
13 -9 4 -16 2 -16 -2 0 -8 -69 -7 -90 0 -3 1 -8 1 -12 0 -5 0 -8 4 -8 9 0 15
-39 12 -55 -4 -8 -7 -11 -17 -7 -21 4 -5 -1 -5 -10 -2 -19 7 -34 -8 -18 -18
16 -10 12 -25 -6 -25 -9 0 -14 -6 -11 -13 4 -10 -2 -13 -18 -9 -13 2 -31 -1
-42 -8 -17 -11 -17 -11 2 -5 16 5 17 4 8 -6 -10 -10 -16 -9 -31 4 -10 9 -23
17 -28 17 -6 0 -15 5 -22 12 -7 7 -30 11 -52 9 -22 -1 -45 1 -52 6 -7 4 -22 9
-33 10 -43 3 -146 46 -167 69 -24 25 -58 32 -58 13 0 -8 -14 -10 -45 -6 -27 4
-45 3 -45 -3 0 -6 -6 -10 -14 -10 -14 0 -22 7 -54 45 -16 19 -36 9 -27 -13 4
-11 -2 -9 -18 6 -14 13 -28 19 -31 14 -4 -7 -15 -6 -30 1 -13 7 -22 15 -20 19
3 5 -13 8 -35 8 -26 0 -41 5 -41 13 0 9 -2 9 -9 -1 -6 -11 -10 -10 -16 5 -5
10 -9 21 -9 25 -2 12 -16 21 -16 10 0 -7 -4 -12 -10 -12 -5 0 -10 9 -10 20 0
11 -4 20 -9 20 -5 0 -7 29 -6 65 2 41 0 65 -7 65 -6 0 -16 7 -22 15 -13 17
-76 38 -76 25z"/>
<path d="M24564 5413 c4 -21 11 -85 16 -142 9 -114 19 -132 84 -147 16 -3 47
-14 69 -24 23 -10 45 -16 49 -14 4 3 8 1 8 -4 0 -5 39 -23 88 -41 48 -17 94
-36 103 -40 8 -5 51 -23 95 -41 43 -17 90 -36 104 -42 14 -6 31 -12 38 -14 7
-1 33 -12 58 -23 24 -12 47 -21 51 -21 8 0 185 -66 228 -85 52 -23 138 -54
182 -65 23 -6 45 -15 48 -20 3 -6 16 -10 28 -10 13 0 34 -8 47 -17 14 -10 27
-17 30 -15 8 3 41 -8 105 -37 51 -23 107 -46 250 -101 35 -14 119 -51 137 -61
10 -5 25 -9 33 -9 8 0 23 -4 33 -9 9 -5 28 -13 42 -18 14 -6 36 -15 50 -21 99
-42 124 -52 134 -52 6 0 34 -10 61 -24 56 -26 139 -61 200 -82 22 -8 74 -29
115 -46 123 -50 133 -54 195 -77 33 -13 87 -34 120 -47 33 -13 67 -24 75 -24
9 0 26 -7 39 -17 13 -9 72 -33 130 -54 91 -32 237 -89 306 -119 88 -38 118
-49 125 -45 5 3 21 -2 37 -10 65 -33 140 -64 176 -70 20 -4 37 -11 37 -16 0
-4 19 -13 43 -20 23 -6 53 -17 67 -24 14 -7 39 -15 55 -19 17 -4 61 -23 99
-42 38 -19 74 -34 80 -34 6 0 33 -11 60 -25 27 -13 65 -28 85 -31 19 -4 49
-15 66 -26 16 -10 35 -18 42 -18 6 0 24 -5 40 -12 15 -7 33 -13 38 -13 6 -1
45 -18 89 -38 43 -21 82 -37 86 -37 5 0 44 -14 87 -32 43 -17 86 -31 96 -30 9
0 17 -3 17 -7 0 -5 28 -19 63 -31 34 -12 78 -30 98 -41 20 -10 45 -19 56 -19
11 0 23 -3 27 -7 3 -4 17 -8 29 -10 12 -2 32 -8 45 -13 79 -35 203 -83 221
-85 9 -1 29 -7 45 -14 16 -6 35 -10 42 -7 7 3 15 -2 18 -10 3 -8 12 -14 21
-14 8 0 25 -5 38 -12 46 -24 57 -28 71 -28 7 0 33 -9 57 -20 69 -31 69 -31 68
73 -1 50 -3 84 -6 75 -2 -10 -8 -18 -13 -18 -5 0 -15 -2 -22 -5 -8 -3 -24 3
-36 13 -22 20 -29 42 -13 42 5 0 12 8 15 17 6 16 6 16 -12 0 -18 -16 -20 -16
-42 8 -25 27 -40 32 -40 14 0 -12 25 -39 37 -39 10 0 36 -40 30 -46 -9 -9 -36
9 -42 27 -4 10 -11 19 -16 19 -5 0 -18 9 -29 20 -11 11 -20 15 -20 9 0 -5 -4
-8 -9 -5 -5 3 -11 -1 -15 -9 -3 -8 -13 -15 -21 -15 -9 0 -13 5 -10 10 4 6 11
7 17 4 6 -4 6 2 -1 15 -7 11 -17 21 -23 21 -9 0 -9 3 0 12 8 8 8 17 0 31 -10
20 -11 20 -24 3 -9 -13 -19 -16 -31 -11 -15 6 -15 8 -3 12 8 2 25 9 37 15 16
8 26 8 36 0 8 -7 17 -9 20 -5 4 3 7 1 7 -5 0 -7 5 -12 11 -12 6 0 8 7 5 16 -5
12 -1 14 15 9 21 -7 20 -4 -8 44 -2 2 -12 -4 -23 -14 -22 -20 -27 -7 -9 28 9
19 9 20 -4 5 -7 -9 -26 -20 -43 -23 -26 -6 -27 -5 -11 8 9 8 17 21 17 30 0 9
5 19 10 22 6 3 10 15 10 25 0 19 31 22 37 3 2 -6 14 -8 25 -5 17 4 20 2 15
-12 -5 -13 -3 -15 12 -7 10 6 26 8 37 6 71 -14 84 -14 84 0 0 8 -3 15 -8 15
-4 0 -18 18 -32 40 -14 22 -28 40 -32 40 -13 0 -9 -12 8 -25 11 -8 14 -19 10
-33 -9 -27 -32 -28 -46 -2 -6 11 -16 20 -23 20 -26 -1 -126 56 -131 73 -4 18
-3 18 14 2 14 -12 20 -13 26 -4 4 8 3 10 -4 5 -7 -4 -12 -1 -12 8 0 20 -11 20
-57 1 -26 -11 -39 -12 -49 -4 -7 6 -37 14 -66 18 -29 5 -60 11 -69 15 -12 5
-21 -1 -32 -23 -10 -19 -11 -30 -4 -28 6 1 16 -8 22 -20 5 -13 15 -23 22 -23
18 0 16 27 -2 34 -13 5 -22 36 -11 36 21 0 56 -23 56 -36 0 -12 3 -14 13 -6
15 13 57 5 57 -10 0 -6 -11 -7 -25 -4 -18 5 -25 2 -25 -8 0 -18 26 -28 56 -20
17 5 24 2 24 -9 0 -8 14 -27 31 -42 17 -14 28 -29 25 -33 -4 -3 -11 0 -15 7
-7 11 -11 9 -20 -8 -9 -16 -9 -21 1 -21 7 0 3 -10 -10 -22 l-23 -23 -19 25
-19 25 24 3 c19 3 25 9 25 27 0 13 -4 27 -10 30 -6 4 -9 -3 -7 -16 1 -12 -4
-24 -10 -26 -7 -3 -13 3 -13 12 0 11 -5 15 -15 12 -8 -4 -17 -2 -20 3 -4 6 -1
10 4 10 6 0 11 5 11 10 0 6 -8 10 -18 10 -10 0 -23 5 -30 12 -7 7 -12 9 -12 6
0 -4 7 -14 16 -22 14 -15 13 -16 -15 -16 -18 0 -35 7 -43 19 -8 11 -22 17 -36
14 -13 -1 -30 3 -38 11 -16 17 -19 46 -4 46 6 0 10 9 10 20 0 29 -19 25 -32
-7 -9 -22 -12 -24 -15 -10 -3 9 -9 17 -14 17 -5 0 -9 20 -9 43 0 31 -6 49 -20
62 -23 21 -55 13 -46 -12 6 -15 5 -15 -12 0 -19 17 -20 17 -25 -4 -8 -32 -2
-38 38 -35 36 3 45 -6 45 -50 0 -25 -14 -32 -24 -11 -3 6 -3 2 0 -10 3 -16 -1
-23 -16 -28 -24 -8 -25 -14 -4 -43 15 -21 14 -22 -15 -22 -34 0 -36 2 -20 28
9 14 8 26 -5 50 -16 32 -41 46 -30 17 8 -20 -24 -9 -49 17 -10 10 -22 18 -27
18 -6 0 -10 7 -10 15 0 21 -27 19 -39 -3 -14 -27 -83 -23 -114 6 -13 13 -31
20 -39 17 -15 -6 -48 18 -48 34 0 18 29 32 55 25 21 -5 27 -3 32 15 6 24 9 25
52 10 24 -9 29 -14 21 -24 -8 -9 -8 -15 0 -20 5 -3 10 -1 10 4 0 6 9 11 20 11
12 0 31 10 44 23 13 13 28 21 34 19 5 -1 14 2 18 9 4 7 3 9 -3 6 -5 -3 -25 4
-44 16 -19 12 -50 22 -69 22 -19 1 -46 8 -60 17 -14 9 -42 19 -63 22 -21 4
-35 11 -32 17 6 9 -7 13 -32 10 -16 -2 -17 21 -1 37 15 15 3 16 -22 2 -14 -8
-21 -6 -28 6 -8 14 -10 14 -25 0 -14 -14 -19 -14 -59 3 -24 11 -36 21 -28 22
8 1 -10 6 -40 10 -68 11 -78 13 -113 28 -16 6 -51 18 -78 27 -27 9 -49 20 -49
25 0 14 -28 11 -32 -3 -4 -10 -10 -10 -32 0 -15 6 -35 12 -45 12 -10 0 -21 9
-24 20 -5 20 -37 29 -37 9 0 -5 -4 -8 -9 -4 -12 7 -24 -12 -16 -25 5 -8 11 -8
19 -1 9 7 20 5 36 -6 14 -10 36 -16 51 -15 23 3 27 -1 27 -23 0 -30 40 -74 60
-67 20 6 14 -37 -8 -50 -11 -7 -20 -18 -20 -25 0 -21 -17 -23 -60 -8 -53 19
-60 19 -60 0 0 -19 -34 -19 -50 0 -6 8 -17 13 -23 12 -7 -1 -11 6 -9 16 2 9
-4 20 -12 23 -9 3 -13 11 -9 17 3 6 1 7 -5 3 -7 -4 -18 -4 -24 1 -7 4 -25 6
-39 5 -27 -3 -55 20 -45 37 4 5 2 13 -4 16 -8 5 -7 11 1 21 6 8 9 17 5 21 -3
3 -6 1 -6 -5 0 -20 -18 -13 -25 9 -5 15 -13 20 -30 17 -18 -4 -25 2 -36 28 -9
25 -16 31 -25 23 -9 -7 -11 -5 -10 7 0 9 -5 19 -11 21 -7 3 -13 -2 -13 -11 0
-24 -15 -19 -47 14 -31 33 -43 37 -43 15 0 -21 -17 -19 -29 3 -14 26 5 42 40
35 17 -3 29 -1 29 5 0 5 9 8 20 5 16 -4 20 0 20 19 0 22 -4 25 -42 26 -24 1
-54 3 -67 4 -13 2 -26 -3 -29 -11 -3 -8 0 -11 7 -7 6 4 11 3 11 -3 0 -5 -7
-14 -16 -19 -11 -6 -13 -11 -5 -16 16 -10 14 -26 -4 -26 -8 0 -15 7 -15 15 0
17 -16 20 -25 5 -3 -5 -1 -10 6 -10 9 0 9 -3 0 -14 -12 -14 -51 -10 -51 5 0 5
-13 9 -30 9 -31 0 -39 -17 -18 -38 18 -18 -1 -14 -30 6 -15 10 -36 22 -46 26
-15 5 -17 9 -8 18 20 20 14 25 -30 23 -40 -1 -65 14 -66 39 -1 16 -27 26 -54
20 -23 -5 -30 -1 -38 20 -10 26 -24 33 -34 17 -5 -8 -59 -23 -100 -27 -11 -1
-21 6 -24 18 -3 13 -10 17 -21 12 -26 -11 -58 -6 -92 15 -18 11 -36 18 -41 15
-4 -3 -8 4 -8 15 0 12 -4 21 -8 21 -14 0 -31 47 -25 69 3 12 1 21 -6 21 -6 0
-11 5 -11 11 0 15 31 38 50 39 12 0 12 -2 2 -9 -11 -6 -10 -10 4 -15 11 -4 20
-2 22 3 2 6 8 8 14 5 6 -4 5 2 -1 15 -6 11 -24 24 -39 28 -38 9 -83 38 -74 48
4 4 -4 2 -18 -5 -17 -9 -25 -10 -28 -1 -5 16 -22 13 -22 -4 0 -9 7 -18 15 -21
8 -4 13 -10 10 -14 -3 -5 -1 -11 5 -15 6 -4 8 -11 5 -16 -4 -5 -1 -9 4 -9 6 0
10 -3 10 -7 -1 -5 0 -10 1 -13 5 -14 6 -50 1 -51 -3 0 -14 -2 -23 -4 -10 -2
-18 3 -18 10 0 8 -7 11 -21 8 -14 -4 -25 1 -35 16 -8 11 -22 21 -30 21 -8 0
-14 5 -14 10 0 6 5 10 10 10 6 0 10 11 10 25 0 17 4 23 14 19 25 -9 29 16 5
37 -12 10 -26 19 -31 19 -5 0 -14 13 -19 30 -9 23 -14 28 -27 21 -19 -9 -42
-4 -42 10 0 5 17 9 38 10 l37 1 -35 10 c-24 7 -36 6 -38 -1 -2 -6 -9 -8 -14
-5 -7 4 -8 2 -4 -5 4 -6 0 -18 -8 -27 -17 -17 -22 -54 -7 -54 5 0 11 7 15 15
8 22 26 18 26 -5 0 -16 7 -20 34 -20 28 0 35 -4 41 -27 8 -35 -28 -67 -56 -50
-20 12 -6 29 16 20 7 -2 15 7 17 21 6 30 1 33 -19 9 -14 -17 -14 -17 -9 0 3
11 0 17 -9 17 -9 0 -12 -6 -9 -15 4 -9 0 -15 -10 -15 -9 0 -16 7 -16 15 0 24
-18 17 -22 -7 -2 -18 -9 -23 -30 -21 -15 1 -27 -1 -27 -5 3 -21 -4 -21 -32 -1
-23 16 -27 24 -18 30 11 6 10 9 -4 15 -14 5 -15 9 -6 20 9 11 8 14 -4 14 -9 0
-18 8 -20 18 -4 13 -5 11 -6 -5 -1 -22 -14 -28 -54 -25 -25 3 -89 47 -79 56 4
4 -2 14 -12 22 -19 13 -19 14 7 14 34 0 35 16 2 24 -29 7 -51 41 -33 52 7 5 8
3 3 -6 -5 -8 -3 -11 5 -8 7 2 14 12 16 23 1 10 9 22 16 27 9 7 7 8 -7 3 -11
-3 -22 -7 -25 -8 -14 -3 -76 17 -82 26 -4 6 -1 18 5 26 10 12 9 14 -5 8 -9 -3
-19 -1 -22 6 -3 9 -5 9 -5 0 -1 -7 -8 -13 -16 -13 -9 0 -12 6 -8 18 3 11 0 9
-11 -6 -16 -21 -43 -22 -31 -1 4 5 1 9 -4 9 -6 0 -11 -5 -11 -11 0 -8 -5 -7
-16 2 -8 7 -13 21 -11 31 6 21 -8 24 -20 5 -4 -8 -16 -16 -25 -20 -24 -9 -23
-26 3 -35 20 -8 20 -9 4 -25 -15 -16 -18 -16 -32 -1 -13 12 -13 18 -4 24 9 5
10 10 2 14 -6 4 -11 16 -11 27 0 22 -13 25 -29 6 -8 -10 -7 -17 1 -25 9 -9 8
-18 -1 -39 -11 -25 -14 -26 -25 -11 -9 13 -19 15 -46 8 -30 -7 -31 -8 -10 -10
18 -2 20 -4 8 -7 -10 -2 -18 -8 -18 -13 0 -12 74 -32 93 -25 8 4 17 -1 20 -9
4 -9 2 -16 -4 -16 -6 0 -17 -7 -26 -15 -8 -9 -18 -13 -21 -10 -4 3 0 10 8 15
11 7 1 10 -32 10 -35 0 -54 6 -68 20 -11 11 -24 20 -30 20 -5 0 -13 6 -17 13
-8 11 -47 37 -58 37 -2 0 -2 -8 1 -17 4 -13 0 -12 -15 5 -14 16 -27 22 -40 17
-11 -3 -22 -1 -26 5 -4 7 -20 9 -38 5 -24 -5 -28 -4 -17 4 13 9 13 11 -2 11
-10 0 -18 4 -18 9 0 5 8 12 18 14 18 5 4 6 -70 7 -20 0 -41 7 -48 15 -6 8 -22
12 -37 9 -15 -3 -29 0 -33 6 -4 6 -16 12 -28 13 -11 0 -18 5 -16 9 3 4 -6 8
-21 8 -14 0 -37 7 -50 16 -13 9 -29 13 -35 9 -6 -4 -39 8 -72 25 -38 21 -75
33 -99 33 -22 0 -44 6 -50 13 -6 8 -18 14 -27 14 -35 0 -90 23 -85 36 4 10 -2
11 -26 4 -25 -7 -31 -6 -31 6 0 10 -7 14 -17 12 -10 -2 -40 8 -68 22 -27 15
-56 25 -64 22 -8 -3 -21 5 -30 16 -21 26 -109 46 -130 29 -8 -7 -12 -7 -9 -1
4 6 -13 15 -40 23 -51 15 -122 80 -122 111 0 10 -4 20 -8 22 -5 2 -12 18 -15
36 -4 21 -3 31 3 27 6 -3 10 -1 10 5 0 7 -8 9 -20 5 -11 -4 -20 -2 -20 4 0 6
6 11 13 11 7 0 8 3 2 8 -6 4 -10 19 -10 34 1 15 -3 24 -8 21 -11 -7 -67 17
-67 28 0 5 -5 9 -11 9 -8 0 -9 -12 -5 -37z m4342 -1700 c13 -17 15 -17 25 0
13 22 23 22 45 0 16 -17 16 -18 -7 -25 -19 -6 -18 -7 7 -3 18 2 35 1 39 -3 4
-4 10 -7 13 -7 13 -1 62 -37 62 -46 0 -5 -7 -9 -15 -9 -8 0 -15 -4 -15 -10 0
-5 -7 -10 -15 -10 -9 0 -18 -7 -21 -15 -4 -8 -16 -15 -28 -14 -11 0 -15 3 -8
6 25 10 10 21 -50 34 -35 7 -55 15 -45 17 24 5 21 20 -5 24 -11 2 -22 11 -24
21 -2 13 2 17 13 13 12 -5 14 -1 11 19 -6 29 0 32 18 8z"/>
<path d="M2916 5410 c-37 -23 -59 -64 -51 -91 8 -25 -20 -86 -54 -119 -35 -33
-145 -68 -195 -62 -32 4 -38 2 -33 -11 4 -11 -4 -16 -34 -21 -22 -4 -45 -3
-51 0 -7 4 -8 2 -4 -4 8 -13 -17 -20 -91 -26 -29 -2 -59 -9 -68 -16 -10 -8
-15 -9 -15 -1 0 7 -7 7 -25 -1 -14 -6 -25 -15 -25 -19 0 -9 -69 -5 -91 5 -11
5 -19 2 -23 -9 -3 -9 -2 -13 4 -10 6 3 10 1 10 -4 0 -14 -16 -14 -40 -1 -13 7
-21 7 -25 0 -3 -5 -11 -10 -16 -10 -6 0 -7 4 -4 10 7 11 -23 2 -41 -12 -7 -5
-22 -11 -34 -13 -17 -3 -20 0 -16 12 5 13 0 14 -31 9 -21 -4 -43 -14 -49 -22
-6 -8 -16 -14 -22 -14 -6 0 -12 -5 -14 -11 -2 -6 -25 -12 -51 -13 -26 -2 -55
-10 -65 -18 -9 -9 -28 -18 -42 -21 -66 -15 -100 -26 -131 -42 -19 -10 -50 -19
-69 -20 -51 -3 -100 -15 -100 -25 0 -12 -73 -18 -93 -8 -14 7 -23 3 -38 -16
-15 -19 -30 -26 -55 -26 -19 0 -33 -4 -30 -9 4 -5 -8 -7 -25 -4 -46 7 -127
-16 -144 -40 -8 -12 -15 -17 -15 -12 0 5 -5 4 -12 -3 -7 -7 -17 -12 -22 -12
-6 0 -5 4 3 9 10 7 7 9 -12 8 -14 -1 -23 -5 -21 -8 4 -7 -21 -19 -39 -19 -7 0
-6 5 3 11 12 8 10 9 -10 5 -14 -3 -29 -6 -35 -6 -5 0 -3 -5 5 -10 13 -8 13
-10 -2 -10 -31 0 -68 19 -68 35 0 12 6 15 20 10 14 -5 20 -2 20 9 0 9 -9 16
-20 16 -11 0 -20 7 -20 15 0 8 7 15 15 15 18 0 18 5 5 31 -9 17 -7 19 17 20
15 1 33 0 38 -1 6 -1 15 -3 20 -4 6 -1 16 -5 23 -9 7 -5 14 -3 18 6 3 9 15 13
32 10 l27 -3 -25 11 c-24 11 -24 11 -5 19 12 4 29 1 43 -8 12 -8 22 -10 22 -4
0 6 9 8 20 5 11 -3 28 -2 37 3 10 4 20 8 23 8 3 1 17 14 33 29 38 39 26 51
-43 43 -32 -4 -69 -2 -83 3 -15 6 -27 7 -27 1 0 -4 8 -11 17 -13 15 -4 15 -5
-2 -6 -11 -1 -29 -8 -39 -16 -11 -8 -32 -15 -48 -15 -15 0 -28 -4 -28 -10 0
-11 -69 -32 -82 -24 -4 3 -43 -7 -85 -21 -43 -14 -91 -26 -108 -27 -44 0 -106
-17 -123 -34 -8 -9 -22 -12 -34 -8 -11 3 -30 2 -42 -4 -11 -6 -42 -16 -67 -23
-39 -10 -44 -15 -34 -26 8 -7 22 -13 31 -13 17 0 17 -1 -1 -13 -12 -10 -14
-16 -7 -21 7 -4 16 -4 22 -1 5 3 19 8 30 10 15 3 20 -2 20 -17 0 -14 -5 -18
-15 -14 -12 4 -14 0 -9 -22 4 -15 3 -24 -1 -20 -4 4 -16 3 -27 -3 -15 -8 -18
-17 -14 -37 4 -15 3 -22 -1 -16 -9 12 -37 12 -66 -1 -23 -10 -74 15 -55 26 7
5 12 25 11 48 -2 33 1 39 15 35 16 -5 16 -4 0 9 -21 17 -14 27 19 27 14 0 23
6 23 15 0 15 -21 21 -33 9 -4 -4 -21 -8 -39 -10 -18 -1 -48 -6 -65 -9 -22 -5
-33 -3 -33 4 0 6 -7 11 -16 11 -10 0 -14 -6 -11 -14 8 -20 -3 -27 -24 -15 -13
7 -19 6 -19 -1 0 -6 -13 -16 -30 -21 -22 -8 -30 -17 -30 -35 0 -26 12 -31 28
-11 7 8 30 12 62 11 60 -3 80 3 80 22 0 19 16 18 24 -2 4 -9 5 -18 4 -19 -2
-1 -12 -7 -22 -12 -19 -10 -18 -11 3 -22 25 -14 19 -33 -7 -25 -14 5 -15 4 -2
-5 14 -10 13 -12 -10 -15 -6 0 -14 -5 -18 -11 -20 -28 -41 -36 -62 -25 -16 8
-25 8 -35 0 -9 -7 -15 -8 -20 0 -16 26 -25 4 -25 -61 0 -71 0 -71 25 -65 14 3
37 9 53 12 15 3 36 9 47 14 18 7 159 46 425 117 52 14 102 29 110 33 9 4 36
11 60 15 25 4 53 12 64 17 10 6 33 12 50 15 17 2 42 8 56 12 14 5 57 18 95 29
39 11 120 34 180 51 153 44 145 42 200 53 28 5 58 17 68 25 11 10 17 12 17 4
0 -8 9 -8 33 2 27 12 170 53 342 99 22 6 60 17 85 24 37 12 97 28 290 80 8 2
53 16 100 30 47 15 93 27 103 27 9 1 17 6 17 13 0 6 13 11 29 12 17 0 38 5 49
11 11 6 22 8 25 5 9 -9 77 16 77 28 0 6 7 8 15 4 8 -3 40 4 72 14 32 11 70 20
85 20 15 0 29 4 32 8 2 4 19 9 37 10 52 4 84 24 85 53 3 72 17 155 30 173 28
40 9 48 -40 16z"/>
<path d="M3678 5128 l-38 -10 7 -73 c4 -49 2 -74 -6 -79 -6 -4 -11 -15 -11
-25 0 -23 -58 -87 -76 -83 -7 2 -24 -3 -36 -10 -13 -7 -29 -11 -36 -9 -8 1
-25 -5 -38 -14 -14 -9 -35 -15 -47 -15 -44 4 -64 0 -83 -18 -28 -26 -74 -43
-95 -37 -19 6 -68 -19 -82 -43 -6 -10 -20 -12 -49 -7 -27 5 -38 4 -34 -3 9
-14 -15 -21 -36 -11 -12 7 -24 2 -42 -16 -15 -14 -26 -30 -26 -36 0 -6 -6 -6
-18 0 -14 7 -33 2 -76 -19 -32 -17 -62 -27 -67 -24 -18 11 -49 12 -55 3 -4 -6
-10 -6 -19 1 -9 8 -25 6 -56 -5 -24 -9 -52 -19 -61 -22 -10 -3 -18 -9 -18 -12
0 -4 -13 -6 -30 -3 -19 3 -30 0 -30 -8 0 -7 -7 -10 -15 -6 -8 3 -15 1 -15 -5
0 -6 -4 -8 -9 -4 -6 3 -24 -3 -42 -14 -17 -11 -37 -17 -43 -15 -7 3 -30 -3
-52 -13 -21 -9 -43 -16 -47 -15 -4 1 -17 -2 -27 -8 -14 -7 -20 -7 -20 0 0 16
-14 12 -40 -12 -19 -17 -34 -22 -72 -20 -28 1 -48 -2 -48 -9 0 -5 -4 -8 -9 -5
-5 3 -14 -1 -21 -9 -8 -9 -21 -13 -32 -9 -12 3 -27 -1 -38 -11 -10 -9 -24 -14
-30 -10 -7 4 -16 1 -21 -6 -5 -8 -9 -9 -9 -3 0 9 -11 9 -40 2 -40 -11 -51 -22
-27 -31 6 -3 -3 -6 -21 -6 -20 -1 -31 3 -27 9 3 6 -5 10 -19 10 -19 0 -24 -4
-19 -15 4 -13 -1 -15 -32 -12 -20 2 -41 10 -47 18 -7 11 -11 11 -15 2 -2 -7
-10 -13 -17 -13 -7 0 -21 -9 -31 -20 -10 -11 -23 -20 -28 -20 -6 0 3 12 20 28
16 15 33 35 36 45 4 10 17 17 34 17 21 0 24 3 14 9 -18 12 -77 -11 -73 -28 1
-6 -7 -11 -18 -11 -21 0 -45 -43 -34 -61 3 -5 0 -9 -5 -9 -6 0 -11 9 -11 20 0
11 -6 20 -14 20 -20 0 -29 -17 -14 -23 7 -2 10 -8 6 -12 -4 -4 -14 -3 -21 4
-8 6 -21 9 -29 6 -9 -4 -18 1 -21 9 -7 19 -2 22 47 31 26 5 34 10 24 16 -7 5
-21 6 -31 3 -16 -5 -17 -3 -5 17 25 45 73 77 82 56 3 -7 3 -2 0 11 -4 17 -1
22 14 22 11 0 22 7 26 15 6 16 -5 20 -18 8 -4 -4 -30 -8 -58 -9 -28 -2 -54 -7
-57 -13 -4 -6 -16 -12 -26 -14 -47 -9 -112 -30 -134 -44 -12 -8 -32 -12 -43
-10 -21 6 -99 -34 -80 -41 6 -2 19 1 29 6 21 11 83 4 83 -9 0 -12 80 -3 94 11
8 8 7 13 -4 20 -13 8 -13 10 2 10 9 0 24 3 33 6 9 4 15 3 14 -2 -1 -5 1 -17 5
-26 4 -9 3 -25 -3 -37 -6 -11 -11 -32 -11 -46 0 -22 3 -25 20 -20 11 3 20 2
20 -3 0 -9 -45 -36 -64 -38 -33 -3 -37 -5 -32 -13 7 -10 -36 -41 -57 -41 -8 0
-29 -8 -48 -17 -18 -9 -48 -17 -65 -17 -18 -1 -30 -4 -27 -8 2 -5 -12 -8 -31
-8 -19 0 -38 -5 -41 -11 -4 -5 -12 -8 -18 -6 -7 2 -20 -5 -29 -15 -16 -19 -17
-19 -27 1 -15 26 -13 52 4 74 8 12 11 31 8 53 -6 38 8 61 44 75 32 12 30 33
-3 25 -15 -4 -23 -3 -20 3 8 12 -36 1 -50 -14 -6 -6 -15 -27 -19 -46 -4 -19
-12 -39 -17 -46 -5 -6 -8 -17 -7 -25 5 -23 -10 -53 -33 -67 -19 -12 -23 -11
-34 3 -8 12 -14 14 -19 6 -4 -6 -1 -18 7 -27 12 -15 10 -16 -16 -9 -23 6 -27
4 -23 -8 6 -16 -47 -46 -81 -46 -11 0 -22 -4 -24 -10 -4 -12 -63 -14 -105 -5
-30 7 -33 5 -33 -15 0 -19 -2 -21 -16 -9 -13 10 -20 10 -45 -5 -29 -17 -31
-17 -44 1 -9 12 -10 22 -4 30 15 18 -10 28 -28 10 -12 -11 -13 -19 -4 -36 8
-14 8 -21 1 -21 -5 0 -10 -7 -10 -15 0 -8 -3 -14 -7 -14 -32 5 -63 -3 -63 -16
0 -18 -5 -19 -29 -3 -16 10 -24 7 -52 -16 -25 -21 -41 -27 -66 -24 -18 2 -33
0 -33 -4 0 -4 -6 -8 -14 -8 -8 0 -16 -6 -19 -14 -6 -15 -83 -38 -129 -39 -16
0 -28 -4 -28 -8 0 -5 -6 -9 -14 -9 -8 0 -13 10 -12 27 0 14 -3 28 -9 30 -5 1
-10 -12 -10 -31 0 -19 3 -32 8 -29 4 2 7 -1 7 -6 0 -6 -4 -11 -10 -11 -5 0
-10 -21 -10 -46 0 -40 2 -45 18 -39 18 7 182 57 267 82 28 8 64 19 80 23 17 5
68 20 115 33 47 14 150 45 228 71 79 25 152 46 162 46 11 0 21 4 24 8 3 5 29
14 59 21 29 6 84 23 123 37 38 13 78 26 89 29 22 4 110 30 230 69 44 14 85 26
93 26 7 0 20 4 30 9 9 5 53 19 97 31 44 12 139 42 210 65 215 71 401 130 570
183 88 27 221 69 295 93 74 23 146 44 160 46 13 3 29 8 35 12 8 7 31 15 75 26
3 0 42 13 87 28 45 15 89 27 98 27 8 0 15 5 15 10 0 6 10 10 23 10 22 0 277
82 307 99 9 5 30 12 48 16 18 3 32 11 32 16 0 6 4 8 9 5 10 -7 104 23 112 36
3 5 7 34 8 66 1 31 6 61 12 68 5 6 6 13 3 16 -5 5 9 67 23 104 6 16 -5 16 -59
2z"/>
<path d="M21816 4941 c-8 -12 -55 -20 -62 -10 -6 10 -359 3 -376 -7 -14 -9 18
-34 41 -33 12 0 11 3 -4 10 -17 8 -16 9 8 5 15 -2 30 1 33 5 7 12 54 11 54 -1
0 -5 3 -9 8 -9 4 1 16 1 27 0 17 -1 18 -3 5 -11 -12 -8 -12 -10 5 -11 19 0 19
-1 1 -8 -14 -5 -16 -10 -8 -15 7 -4 17 -4 23 0 15 9 89 11 89 3 0 -4 12 -9 26
-12 19 -3 32 2 49 21 13 14 22 30 19 34 -3 5 5 6 18 3 13 -3 36 -2 50 4 29 11
43 4 28 -14 -5 -6 -27 -10 -50 -8 -41 3 -49 -4 -28 -25 18 -18 53 -15 79 7 18
14 29 17 42 10 23 -13 42 -2 28 15 -6 7 -8 16 -4 19 9 10 81 8 87 -2 3 -4 37
-6 76 -3 48 3 70 1 70 -7 0 -6 5 -11 11 -11 5 0 8 4 4 9 -9 15 28 18 55 4 14
-7 34 -12 45 -12 17 1 16 2 -5 9 -17 5 -19 8 -7 9 10 1 17 9 17 22 0 19 -4 20
-42 14 -61 -9 -397 -12 -391 -2 2 4 0 7 -6 7 -5 0 -12 -4 -15 -9z"/>
<path d="M20397 4934 c-1 -2 -56 -4 -122 -5 -66 0 -126 -6 -132 -11 -9 -7 -13
-7 -13 1 0 7 -40 11 -127 11 -178 0 -263 -9 -263 -28 0 -9 6 -12 16 -8 10 4
25 -1 35 -10 11 -10 25 -14 35 -10 10 4 21 1 25 -6 6 -10 49 -13 169 -13 132
0 164 -3 173 -15 14 -17 57 -25 57 -10 0 6 9 10 19 10 11 0 23 5 27 11 4 6 20
8 40 4 19 -3 34 -2 34 3 0 5 35 8 78 7 l77 0 -30 31 c-18 19 -43 34 -63 36
-17 3 -33 3 -35 2z"/>
<path d="M20935 4932 c-1 -2 -46 -3 -99 -4 -53 0 -99 -4 -102 -9 -3 -5 -12 -9
-21 -9 -24 0 -83 -31 -77 -41 8 -14 34 -11 32 4 -2 7 11 13 36 15 23 2 36 0
32 -7 -8 -13 74 -25 125 -18 21 3 42 1 45 -4 3 -5 12 -9 21 -9 13 0 13 3 2 16
-12 14 -9 16 23 13 21 -2 40 0 44 4 12 11 42 8 46 -5 3 -8 14 -2 31 16 30 32
66 31 48 -3 -14 -26 -4 -32 41 -25 30 5 38 4 36 -7 -2 -9 8 -15 32 -17 23 -2
30 0 22 6 -11 7 -10 10 3 16 26 9 42 7 25 -4 -17 -11 -15 -11 52 -13 27 -1 48
1 48 6 0 4 -16 7 -35 7 -35 0 -63 29 -37 38 7 2 12 10 12 18 0 15 -5 15 -248
18 -73 1 -135 0 -137 -2z"/>
<path d="M18276 4922 c-6 -11 -141 -25 -256 -28 -41 -1 -371 -3 -732 -4 -555
-1 -657 -4 -662 -16 -7 -19 -42 -18 -50 2 -5 13 -21 15 -103 11 -54 -2 -105
-7 -113 -10 -22 -8 -50 -5 -50 5 0 9 -93 10 -218 1 -55 -4 -82 -9 -79 -17 2
-6 9 -11 15 -11 5 0 13 -3 17 -7 4 -4 13 -4 20 -2 8 4 15 -3 17 -18 2 -15 10
-23 23 -23 11 0 25 -3 31 -7 15 -10 149 1 224 17 16 4 31 2 35 -5 5 -8 11 -5
20 7 13 17 14 17 20 1 8 -19 55 -25 55 -8 0 12 118 11 125 -1 3 -4 42 -5 88
-3 104 6 101 6 170 3 33 -1 62 3 65 8 4 6 16 8 27 5 40 -11 205 -9 205 2 0 6
4 5 9 -2 9 -15 52 -13 64 3 5 7 10 7 15 0 6 -9 82 -11 147 -5 l20 1 -20 10
c-14 6 -6 7 25 3 25 -4 59 -8 77 -9 17 -2 54 -6 82 -10 35 -5 51 -3 51 4 0 6
9 11 20 11 25 0 27 20 3 21 -10 0 -5 5 11 9 30 9 113 3 131 -10 6 -4 25 -10
43 -13 23 -5 32 -3 32 7 0 7 7 19 16 27 13 10 17 10 24 -2 7 -10 12 -11 21 -2
8 8 18 7 37 -3 31 -16 102 -19 102 -4 0 6 5 10 10 10 6 0 9 -5 8 -12 -2 -6 12
-12 35 -14 21 -2 35 1 32 6 -4 6 8 7 27 3 18 -3 35 -10 36 -15 5 -11 89 -10
97 1 3 6 15 8 27 6 23 -5 45 4 50 20 2 5 11 11 21 12 11 2 28 10 39 17 18 13
12 15 -66 14 -52 0 -91 4 -100 11 -8 7 -17 8 -20 3z"/>
<path d="M18600 4898 c0 -5 7 -8 15 -8 8 0 14 -5 13 -12 -2 -7 16 -15 46 -19
26 -4 55 -10 64 -14 8 -3 18 -1 22 5 5 8 15 8 34 0 15 -5 34 -10 43 -10 13 0
13 3 3 15 -11 13 -7 15 24 15 20 0 36 -5 36 -11 0 -5 -4 -8 -8 -5 -5 3 -9 -1
-9 -9 0 -23 24 -18 30 6 4 15 -1 23 -20 30 -14 5 -23 12 -20 15 8 8 77 -24 77
-35 0 -6 5 -11 10 -11 6 0 9 3 8 8 -2 4 1 8 6 9 13 2 26 26 20 35 -7 11 -394
6 -394 -4z"/>
<path d="M14530 4864 c-8 -1 -41 -6 -73 -9 -52 -6 -58 -9 -55 -28 2 -11 9 -22
17 -25 8 -3 11 0 7 7 -10 16 7 14 30 -4 17 -13 17 -14 2 -15 -10 0 -18 -4 -18
-9 0 -12 84 7 89 20 2 6 10 1 18 -10 16 -23 60 -22 75 1 4 7 8 9 8 3 0 -6 3
-6 8 1 4 5 17 17 30 26 l23 16 -32 11 c-17 6 -35 8 -40 5 -5 -3 -9 0 -9 5 0
10 -45 13 -80 5z"/>
<path d="M7446 4752 c-2 -1 -20 -3 -40 -4 -39 -1 -55 -13 -38 -30 7 -7 17 -6
31 2 12 6 27 8 33 4 21 -13 70 -15 84 -3 16 13 45 5 42 -12 -5 -22 21 -20 32
2 10 17 14 19 21 8 5 -8 22 -12 48 -10 29 2 41 -1 41 -11 0 -11 2 -11 9 0 4 8
19 13 32 12 48 -4 54 -1 33 16 -17 14 -17 15 -1 10 10 -3 23 -6 28 -6 5 0 9
-7 9 -15 0 -19 7 -18 50 5 29 15 32 20 17 25 -16 7 -425 13 -431 7z"/>
<path d="M7018 4744 c-2 -1 -91 -4 -198 -7 -107 -3 -208 -10 -223 -16 -17 -7
-26 -7 -22 -1 4 6 -117 8 -352 6 -573 -7 -541 -6 -545 -24 -6 -21 13 -92 19
-74 3 6 11 12 18 12 8 0 21 7 30 17 13 12 19 13 25 4 5 -10 16 -10 44 -3 20 6
36 6 36 1 0 -4 20 -7 44 -5 32 2 47 -1 50 -11 5 -11 9 -11 26 -1 17 11 22 11
29 -1 6 -10 13 -10 28 -2 19 10 141 13 420 12 74 0 121 4 138 13 13 7 24 15
22 17 -1 2 3 -1 9 -8 6 -7 24 -13 40 -14 16 0 38 -4 49 -8 12 -5 31 -3 48 6
19 9 33 11 40 5 7 -6 35 -8 62 -6 28 2 94 5 148 8 89 3 100 6 115 27 8 12 10
19 4 15 -17 -10 -15 0 4 18 14 15 13 16 -8 17 -13 0 -40 1 -60 3 -21 2 -39 2
-40 0z"/>
<path d="M1934 4603 c-5 -8 -29 -17 -54 -20 -25 -3 -54 -12 -65 -19 -11 -8
-29 -14 -42 -14 -12 0 -24 -4 -28 -10 -3 -5 -13 -6 -22 -3 -11 4 -14 3 -9 -6
4 -7 -2 -20 -16 -32 l-23 -21 25 15 c28 16 77 19 86 6 3 -5 -3 -9 -13 -9 -15
0 -16 -2 -3 -10 23 -15 43 -12 36 5 -5 15 0 18 44 19 16 1 29 9 35 24 12 28
39 30 30 2 -3 -11 -4 -20 -2 -20 2 0 14 9 27 20 13 11 29 20 35 20 17 0 27 28
12 34 -7 2 -2 5 10 5 29 1 53 11 53 22 0 16 -106 8 -116 -8z"/>
</g>
</svg>
